<?xml version="1.0" standalone="no"?>
<!DOCTYPE svg PUBLIC "-//W3C//DTD SVG 20010904//EN"
 "http://www.w3.org/TR/2001/REC-SVG-20010904/DTD/svg10.dtd">
<svg version="1.0" xmlns="http://www.w3.org/2000/svg"
 width="1920.000000pt" height="880.000000pt" viewBox="0 0 1920.000000 1280.000000"
 preserveAspectRatio="xMidYMid meet">

<g transform="translate(0.000000,1280.000000) scale(0.100000,-0.100000)"
fill="#000000" stroke="none">
<path d="M10255 8448 l-27 -143 36 -205 c58 -331 98 -655 128 -1035 12 -158
18 -901 8 -1059 -7 -117 12 -108 39 18 32 150 40 238 47 526 9 357 -17 826
-71 1260 -8 68 -13 125 -12 127 2 1 25 -22 51 -52 40 -47 76 -70 76 -49 0 3
-45 144 -99 312 -55 169 -108 334 -117 367 -10 33 -21 64 -25 68 -3 5 -19 -56
-34 -135z"/>
<path d="M9645 8376 c-154 -67 -436 -188 -627 -271 -327 -141 -347 -151 -363
-183 -9 -19 -14 -36 -12 -38 2 -2 284 117 627 265 612 264 624 269 642 306 11
20 18 38 16 39 -2 2 -129 -52 -283 -118z"/>
<path d="M8176 8420 c-3 -14 -17 -79 -30 -145 l-25 -120 34 -185 c36 -198 89
-569 82 -576 -2 -2 -46 86 -97 196 -52 110 -98 200 -102 200 -4 0 -8 -2 -8 -4
0 -2 -15 -53 -34 -114 l-34 -110 20 -94 c33 -163 96 -546 123 -758 19 -146 28
-269 32 -430 l5 -225 -36 -22 c-109 -69 -253 -48 -383 55 -29 23 -54 38 -56
34 -2 -4 -19 -56 -37 -116 l-33 -108 22 -37 c50 -84 102 -194 117 -250 22 -78
23 -77 -153 -168 -262 -136 -595 -261 -802 -303 -286 -57 -426 -23 -466 114
-31 103 -17 173 67 346 52 107 117 282 118 315 0 41 -107 -193 -162 -354 -71
-209 -109 -364 -109 -447 -1 -169 62 -233 236 -242 209 -10 622 116 1009 309
156 78 213 118 250 178 29 46 106 301 106 351 l0 38 68 4 c80 4 152 36 183 80
24 33 80 192 110 313 40 158 36 443 -12 822 -18 141 -19 165 -6 190 7 15 25
65 38 110 13 46 27 83 30 83 12 0 44 -378 60 -700 11 -224 7 -658 -7 -812 -5
-49 -3 -68 5 -68 14 0 13 -1 39 125 29 137 31 160 42 409 16 360 -13 919 -70
1361 -18 133 -17 134 41 65 45 -55 69 -68 69 -38 0 6 -40 136 -89 287 -49 152
-103 319 -119 371 -24 77 -31 90 -36 70z"/>
<path d="M4677 8345 c-3 -11 -13 -63 -22 -115 l-16 -95 45 -155 c158 -544 240
-1030 253 -1508 7 -248 16 -275 45 -121 50 273 -4 863 -131 1417 -10 45 -17
82 -15 82 3 0 28 -18 56 -40 46 -37 76 -47 71 -24 -1 5 -64 137 -141 294 -101
208 -141 280 -145 265z"/>
<path d="M6966 7990 c-607 -263 -620 -269 -639 -305 -10 -20 -17 -38 -15 -40
2 -2 145 59 318 134 173 75 455 197 627 271 290 125 312 136 327 167 18 38 19
43 9 42 -5 0 -287 -121 -627 -269z"/>
<path d="M9969 8107 l-21 -44 36 -51 c56 -78 79 -151 80 -257 1 -49 -2 -112
-7 -140 -7 -48 -7 -49 8 -23 43 76 57 243 30 357 -16 66 -80 201 -96 201 -5 0
-19 -19 -30 -43z"/>
<path d="M6027 8048 l-25 -43 34 -46 c75 -102 103 -223 84 -361 -6 -44 -13
-87 -16 -96 -3 -9 2 -4 11 11 25 42 55 174 55 236 0 81 -24 182 -61 256 -44
91 -51 94 -82 43z"/>
<path d="M5563 7878 c-34 -38 -54 -85 -77 -189 l-22 -99 -22 68 c-29 91 -73
158 -117 179 -34 16 -35 16 -60 -7 -38 -36 -51 -89 -31 -128 23 -44 52 -58 76
-37 11 10 26 15 34 12 13 -5 69 -139 98 -234 7 -24 16 -43 20 -43 8 0 29 66
67 210 47 183 52 191 104 150 14 -11 28 -20 31 -20 14 0 25 79 15 109 -19 54
-79 69 -116 29z"/>
<path d="M9786 7869 c-16 -19 -24 -38 -21 -49 26 -81 45 -300 27 -300 -14 0
-50 43 -62 75 -17 45 -40 171 -40 221 0 50 -7 54 -38 22 -19 -21 -20 -33 -19
-158 2 -163 -5 -185 -61 -176 -24 3 -47 17 -64 36 -25 27 -28 38 -28 98 0 37
5 84 11 105 6 22 8 42 5 45 -4 3 -28 -17 -56 -46 -49 -51 -86 -109 -76 -120
10 -10 46 31 54 62 4 16 13 31 19 33 8 3 7 -11 -3 -43 -19 -62 -18 -148 2
-185 19 -37 74 -63 115 -54 16 4 47 27 72 55 l44 49 16 -35 c35 -72 85 -67
142 16 27 38 30 52 30 114 -1 137 -20 266 -39 266 -2 0 -16 -14 -30 -31z"/>
<path d="M3592 7837 c-22 -23 -22 -25 -7 -88 8 -35 15 -95 15 -132 0 -63 -1
-67 -19 -58 -27 15 -49 78 -63 181 l-12 90 -23 -22 c-23 -21 -24 -27 -18 -113
7 -119 -2 -159 -38 -163 -20 -2 -36 5 -57 27 -26 25 -30 37 -30 83 0 29 4 69
10 87 5 19 7 37 5 40 -8 8 -83 -69 -99 -103 -8 -17 -13 -32 -11 -35 8 -7 44
43 45 62 0 9 5 17 11 17 7 0 8 -7 4 -17 -11 -29 -18 -119 -11 -147 11 -42 41
-66 85 -66 34 0 45 6 76 43 27 30 39 38 43 28 7 -21 49 -61 63 -61 22 0 78 70
85 108 9 45 -9 239 -22 252 -7 7 -18 2 -32 -13z"/>
<path d="M4539 7690 c-1 -3 -4 -57 -9 -120 -6 -95 -4 -132 12 -210 76 -377
146 -886 155 -1120 5 -132 3 -164 -11 -207 -56 -170 -293 -193 -464 -47 -24
20 -45 34 -48 32 -2 -3 -7 -57 -11 -120 l-6 -115 42 -72 c24 -40 56 -104 72
-143 l29 -70 -20 -28 c-67 -94 -542 -312 -884 -405 -134 -37 -249 -55 -342
-55 -124 0 -188 29 -225 101 l-20 39 35 104 c19 57 61 157 94 222 l59 119 7
118 c3 64 4 117 0 117 -11 0 -124 -248 -153 -337 -41 -125 -61 -273 -61 -444
0 -124 3 -148 21 -186 26 -53 82 -89 164 -104 190 -35 695 115 1107 328 189
98 224 143 239 303 5 54 8 132 7 173 -2 41 -1 78 2 81 3 3 35 0 70 -6 90 -15
168 7 226 65 36 36 44 53 58 117 55 255 47 693 -23 1175 -16 110 -28 201 -26
203 1 1 22 -39 46 -90 l44 -92 6 60 c18 161 14 182 -55 331 -88 189 -136 288
-137 283z"/>
<path d="M7002 7647 c-19 -20 -20 -28 -12 -59 17 -59 29 -177 21 -205 -7 -25
-7 -25 -25 -7 -29 28 -44 74 -55 165 -6 46 -11 88 -11 93 0 5 -11 -1 -25 -14
-25 -23 -26 -28 -19 -102 8 -91 -2 -167 -22 -175 -72 -27 -129 92 -93 196 18
52 0 50 -51 -6 -50 -54 -80 -114 -38 -76 11 10 24 29 29 42 14 35 20 20 9 -20
-13 -46 -13 -115 2 -142 17 -34 39 -46 80 -47 31 0 42 7 73 42 29 35 38 40 45
28 5 -8 10 -18 10 -22 0 -4 11 -15 25 -24 23 -15 27 -15 49 -1 13 9 34 32 46
52 20 33 22 45 17 143 -5 92 -18 162 -30 162 -2 0 -13 -10 -25 -23z"/>
<path d="M2327 7558 c-43 -134 -57 -211 -64 -365 -5 -123 -4 -145 11 -167 28
-44 92 -26 143 41 26 34 28 43 31 150 2 63 1 126 -2 139 -4 14 -24 44 -46 68
-39 42 -39 43 -42 132 l-3 89 -28 -87z m26 -295 l39 -27 -22 -18 c-12 -10 -35
-18 -51 -18 -31 0 -36 17 -23 68 8 28 10 28 57 -5z"/>
<path d="M10100 7234 l-43 -106 51 -207 c65 -260 92 -406 99 -549 7 -125 4
-132 -50 -132 -62 0 -128 52 -183 146 -60 102 -143 377 -164 544 -18 145 -43
290 -49 290 -3 0 -26 -50 -50 -111 -49 -126 -50 -129 -8 -354 18 -98 22 -157
22 -319 l0 -198 -38 -33 c-48 -42 -110 -59 -190 -53 -150 12 -239 97 -283 268
-28 111 -11 343 41 544 l8 29 -45 -31 c-108 -74 -182 -193 -253 -405 -29 -87
-36 -125 -44 -249 -10 -154 -17 -177 -53 -202 -52 -36 -127 -8 -205 78 -70 77
-96 134 -101 227 l-4 76 67 66 c60 60 71 77 106 168 22 56 37 104 34 107 -9
10 -86 -70 -126 -131 -47 -72 -156 -345 -171 -427 -20 -114 15 -234 96 -327
46 -52 135 -98 173 -88 72 18 105 68 187 287 62 163 82 252 92 393 l7 98 43
41 c23 23 57 50 75 60 32 19 32 19 25 0 -5 -10 -19 -71 -33 -134 -32 -151 -37
-355 -9 -445 35 -119 103 -193 209 -229 136 -46 267 8 333 136 29 57 100 232
110 271 8 34 15 27 39 -38 10 -27 31 -77 48 -110 82 -167 202 -228 284 -146
27 27 82 148 128 282 45 131 42 297 -12 573 -20 105 -22 135 -13 155 10 22 5
43 -41 158 -29 73 -56 133 -60 133 -4 0 -26 -48 -49 -106z"/>
<path d="M16406 7277 c-29 -29 -62 -115 -77 -204 -12 -68 -29 -106 -29 -65 0
34 -38 126 -70 171 -58 80 -102 88 -140 27 -29 -47 -26 -89 9 -128 28 -32 29
-32 55 -15 15 10 31 15 37 11 15 -9 50 -89 84 -192 15 -46 31 -80 36 -75 7 7
17 40 81 272 28 102 45 117 86 78 l29 -27 11 25 c20 44 15 93 -13 120 -30 31
-69 32 -99 2z"/>
<path d="M3266 7129 c-55 -37 -155 -157 -189 -227 -19 -40 -22 -64 -22 -154
l0 -108 -35 6 c-135 25 -287 84 -387 152 -150 102 -200 98 -354 -26 -92 -74
-177 -163 -290 -305 -96 -120 -141 -197 -163 -278 -7 -30 -28 -76 -45 -104
-51 -83 -64 -158 -58 -325 7 -176 27 -277 137 -680 115 -423 125 -472 125
-667 0 -89 3 -159 6 -155 157 183 164 203 157 401 -6 147 -26 241 -134 643
-73 272 -124 490 -124 536 0 21 6 18 49 -27 51 -52 93 -71 120 -54 27 17 152
166 173 206 42 82 32 221 -23 335 -54 111 -127 132 -206 59 -28 -25 -30 -11
-7 59 23 69 52 103 143 172 140 106 191 108 332 13 103 -68 209 -113 343 -144
126 -29 430 -31 556 -3 144 31 226 68 315 143 101 84 202 150 313 204 80 39
93 50 160 132 40 49 71 91 69 94 -2 2 -30 -3 -63 -12 -126 -33 -251 -15 -526
76 -122 40 -206 62 -253 65 -67 6 -72 4 -119 -27z m201 -233 c109 -35 227 -69
263 -76 119 -21 113 -19 98 -37 -46 -56 -195 -114 -358 -139 -102 -15 -357
-19 -378 -6 -9 6 6 32 58 95 l70 86 -6 70 -7 71 31 0 c17 0 120 -29 229 -64z
m-1416 -799 c11 -22 18 -41 15 -44 -5 -6 -66 97 -66 112 1 14 27 -22 51 -68z"/>
<path d="M1748 7100 c-31 -4 -43 -14 -78 -63 -22 -32 -40 -60 -40 -62 0 -3 33
-5 73 -5 89 0 142 -14 162 -43 14 -20 13 -23 -13 -44 -15 -12 -53 -36 -85 -53
-43 -21 -69 -44 -98 -84 -21 -30 -39 -60 -39 -66 0 -6 27 3 60 21 108 57 280
268 280 343 0 21 -7 30 -32 40 -39 16 -138 24 -190 16z"/>
<path d="M10801 7046 c-12 -19 -28 -65 -37 -102 -24 -102 -25 -103 -41 -50
-39 129 -111 183 -153 114 -26 -43 -25 -61 4 -95 22 -25 27 -26 45 -15 12 6
23 12 26 12 8 0 42 -73 64 -142 13 -38 27 -68 32 -68 5 0 9 2 9 4 0 18 73 273
80 280 5 5 19 2 35 -8 33 -22 45 -13 45 34 0 75 -71 98 -109 36z"/>
<path d="M16947 6904 l-36 -116 39 -127 c112 -363 191 -822 178 -1041 -3 -60
-7 -73 -33 -101 -60 -63 -161 -87 -226 -53 -40 20 -85 94 -100 163 -7 31 -14
58 -16 60 -1 2 -41 -33 -88 -78 -123 -118 -200 -147 -250 -97 -13 13 -27 40
-30 60 -4 20 -11 38 -15 41 -4 2 -32 -9 -61 -24 -130 -70 -262 -91 -327 -51
-45 28 -72 89 -72 166 0 33 -2 63 -5 66 -3 3 -38 -7 -78 -23 -112 -43 -420
-135 -657 -195 -928 -237 -1873 -321 -2675 -239 -578 60 -1122 208 -1554 425
-53 26 -120 58 -149 70 l-53 23 -22 -21 c-20 -18 -27 -19 -68 -10 -36 8 -57 7
-100 -5 -102 -30 -159 -96 -323 -376 -125 -214 -193 -307 -292 -400 -93 -88
-172 -134 -280 -161 -337 -87 -550 127 -505 507 6 53 10 98 8 100 -7 6 -67
-211 -79 -283 -13 -88 -5 -274 16 -339 53 -170 188 -254 388 -243 109 7 182
31 279 93 136 88 219 191 406 504 178 298 241 361 361 361 88 0 95 -6 126
-112 53 -174 122 -298 166 -298 37 0 58 46 114 250 8 28 18 44 27 43 8 -1 86
-31 174 -67 974 -396 2282 -442 3690 -130 292 64 646 163 867 240 140 49 143
49 139 -2 -3 -51 15 -120 40 -156 11 -14 40 -34 65 -44 40 -15 56 -16 109 -7
48 8 166 56 246 100 4 2 12 -17 18 -42 15 -59 41 -85 86 -85 54 0 108 33 200
121 l83 80 7 -39 c10 -62 59 -157 94 -181 59 -42 133 -37 210 15 54 37 87 96
135 243 71 216 79 275 73 485 -5 190 -29 355 -85 601 -21 95 -25 129 -18 165
7 42 4 53 -47 163 -31 64 -58 117 -60 117 -2 0 -20 -52 -40 -116z"/>
<path d="M5515 6993 c-13 -10 -105 -139 -105 -147 0 -3 51 -6 113 -7 113 -1
203 -16 201 -34 -2 -14 -110 -72 -169 -91 -44 -14 -56 -25 -99 -86 -26 -38
-46 -72 -43 -75 10 -9 99 26 168 67 87 51 141 105 213 212 92 136 73 158 -144
165 -69 2 -130 0 -135 -4z"/>
<path d="M6167 6931 c-21 -4 -49 -14 -63 -22 -32 -17 -184 -225 -184 -252 0
-72 122 -171 366 -298 120 -62 208 -112 223 -125 3 -3 -37 -43 -87 -90 -51
-47 -136 -140 -189 -207 -130 -165 -130 -164 -28 -61 81 82 264 229 273 219 2
-2 -3 -14 -12 -27 l-15 -24 176 -87 c96 -49 179 -85 183 -80 4 4 38 50 75 101
53 73 66 98 61 117 -3 13 -31 61 -61 106 -30 45 -55 83 -55 84 0 2 37 18 83
38 127 54 318 121 468 162 l135 38 70 95 c38 53 70 99 72 102 3 7 -89 39 -178
64 -286 78 -1170 177 -1313 147z m228 -216 c223 -15 783 -92 823 -114 8 -4
-35 -26 -105 -54 -65 -26 -176 -76 -247 -110 l-129 -64 -31 27 c-56 48 -150
107 -256 160 -118 58 -270 150 -270 163 0 5 28 6 63 3 34 -3 103 -8 152 -11z"/>
<path d="M16348 6550 c-47 -146 -58 -210 -65 -362 -5 -128 -4 -150 11 -172 28
-44 92 -26 143 41 26 34 28 44 31 141 5 138 -1 165 -48 212 l-39 39 -3 93 -3
93 -27 -85z m22 -300 c34 -29 34 -30 16 -45 -19 -15 -67 -21 -78 -10 -7 8 12
85 21 85 4 0 22 -13 41 -30z"/>
<path d="M10776 6601 c-14 -15 -17 -29 -12 -56 5 -27 3 -37 -9 -41 -21 -8 -19
-76 5 -189 18 -82 19 -85 15 -30 -3 33 -8 77 -12 98 l-6 37 66 0 c86 0 101 14
95 87 -6 64 -35 101 -89 109 -26 5 -38 1 -53 -15z m84 -81 c11 -7 1 -10 -35
-10 -36 0 -46 3 -35 10 8 5 24 10 35 10 11 0 27 -5 35 -10z"/>
<path d="M2736 6285 c-31 -41 -56 -79 -56 -83 0 -5 12 -17 28 -28 15 -11 50
-36 78 -57 l51 -37 57 79 c31 43 56 81 56 84 0 5 -115 91 -147 110 -8 5 -32
-20 -67 -68z"/>
<path d="M2433 6256 c-29 -41 -53 -78 -53 -83 0 -9 131 -110 149 -115 7 -3
121 142 121 154 0 5 -155 118 -161 118 -2 0 -28 -34 -56 -74z"/>
<path d="M3602 6295 c-22 -18 -34 -40 -41 -76 -16 -75 -14 -82 14 -54 20 21
34 25 81 25 l56 0 -57 -56 c-99 -98 -140 -239 -97 -336 27 -62 66 -82 142 -75
152 13 277 149 304 327 l6 45 -30 -55 c-66 -118 -168 -190 -269 -190 -108 0
-157 59 -106 126 28 37 147 135 227 188 42 27 48 36 53 76 4 25 9 53 12 63 4
16 -7 17 -131 17 -129 0 -136 -1 -164 -25z"/>
<path d="M5234 6121 c-57 -63 -197 -238 -233 -291 -15 -23 -8 -17 20 15 24 28
69 77 100 110 55 59 174 214 167 220 -2 1 -26 -23 -54 -54z"/>
<path d="M10773 6095 c0 -33 2 -45 4 -27 2 18 2 45 0 60 -2 15 -4 0 -4 -33z"/>
<path d="M5665 6014 c-31 -41 -55 -79 -53 -84 4 -12 141 -110 153 -110 9 0
115 140 115 152 0 6 -147 118 -154 118 -3 0 -30 -34 -61 -76z"/>
<path d="M7246 6019 c-14 -17 -26 -35 -26 -40 0 -6 -4 -8 -9 -4 -6 3 -23 -23
-40 -57 -71 -149 -233 -272 -442 -334 -39 -12 -47 -19 -57 -51 -6 -20 -10 -38
-8 -40 1 -2 35 8 74 21 178 61 310 162 389 297 l45 77 45 -34 c64 -49 86 -46
112 15 26 62 27 107 1 149 -25 40 -51 41 -84 1z m36 -66 c40 -47 23 -60 -26
-22 -21 17 -25 24 -14 30 19 12 23 11 40 -8z"/>
<path d="M9476 5825 c-21 -23 -43 -86 -61 -174 l-7 -34 -20 59 c-23 68 -59
120 -90 130 -26 8 -68 -34 -68 -69 0 -50 49 -84 78 -55 12 12 42 -46 77 -150
9 -30 21 -50 25 -45 5 4 22 62 39 127 37 142 44 153 79 130 20 -13 26 -14 33
-3 15 24 10 68 -11 89 -27 27 -46 25 -74 -5z"/>
<path d="M8881 5808 c-37 -59 -61 -119 -61 -151 0 -29 7 -41 36 -65 l36 -30
-17 -32 c-49 -96 -187 -183 -345 -219 -187 -42 -184 -41 -95 -36 102 6 230 37
311 76 73 34 175 124 194 169 11 28 16 30 62 30 67 0 88 13 88 53 0 37 -22 76
-92 165 -56 69 -91 81 -117 40z m38 -120 c-1 -24 -4 -54 -8 -68 l-7 -25 -13
24 c-10 19 -11 32 -1 67 16 56 30 57 29 2z m94 -23 c23 -48 21 -71 -5 -89 -37
-26 -48 -21 -37 16 5 18 9 50 9 70 0 48 11 48 33 3z"/>
<path d="M4911 5708 c-191 -262 -286 -490 -267 -642 19 -152 139 -268 305
-297 211 -38 448 104 721 432 100 120 254 319 246 319 -2 0 -30 -33 -62 -72
-85 -107 -258 -281 -339 -343 -88 -67 -202 -122 -280 -134 -171 -26 -354 63
-416 202 -32 72 -32 184 0 286 22 73 98 233 142 299 41 63 9 31 -50 -50z"/>
<path d="M2179 5749 c-17 -17 -20 -31 -17 -69 2 -38 -1 -52 -15 -62 -25 -19
-25 -83 1 -208 11 -58 23 -116 25 -130 2 -14 5 -5 5 20 1 25 -5 79 -12 120 -8
41 -12 78 -9 83 2 4 33 7 69 7 36 0 80 7 99 14 l35 15 0 68 c0 79 -13 109 -59
140 -43 29 -94 30 -122 2z m119 -114 c3 -3 -24 -5 -59 -4 -61 1 -63 1 -35 14
27 11 78 6 94 -10z"/>
<path d="M5201 5567 c-36 -52 -71 -153 -71 -202 0 -37 14 -74 34 -87 38 -26
93 15 103 75 l5 36 -29 -11 c-17 -6 -38 -8 -48 -4 -24 9 -15 74 24 167 16 38
25 69 21 69 -5 0 -22 -19 -39 -43z"/>
<path d="M2179 5189 c0 -8 -4 -36 -8 -62 -5 -27 -5 -63 -1 -80 5 -24 8 -11 14
57 4 48 5 91 2 94 -3 3 -6 -1 -7 -9z"/>
<path d="M10597 5022 c-10 -10 -17 -24 -17 -30 0 -6 -6 -9 -14 -6 -8 3 -18 -6
-26 -25 -32 -78 -181 -182 -305 -213 -27 -6 -56 -16 -62 -21 -16 -11 -17 -43
-3 -52 16 -10 147 32 205 65 59 34 149 121 166 161 l11 29 35 -30 c58 -51 75
-40 76 50 0 82 -29 113 -66 72z m53 -78 c0 -18 -11 -18 -36 1 -16 12 -17 16
-4 24 17 11 40 -3 40 -25z"/>
<path d="M16935 4934 c-31 -42 -55 -78 -52 -80 13 -14 151 -114 156 -114 3 0
32 36 63 79 l57 79 -74 56 c-41 31 -79 56 -84 56 -6 0 -35 -34 -66 -76z"/>
<path d="M16651 4934 c-19 -14 -21 -22 -16 -55 8 -47 3 -49 -22 -9 l-19 31
-27 -21 c-20 -16 -27 -30 -27 -56 0 -49 -30 -42 -102 22 -25 22 -43 31 -57 27
-27 -7 -91 -78 -91 -101 0 -10 -11 -40 -24 -66 l-24 -48 30 28 c32 31 68 93
68 118 0 30 22 27 60 -8 22 -19 51 -38 66 -42 28 -7 94 18 94 36 0 7 13 8 36
4 30 -5 40 -2 65 22 23 22 29 36 29 68 0 57 -10 70 -39 50z"/>
<path d="M5927 4803 c-68 -72 -112 -249 -72 -293 26 -28 80 -27 99 3 16 25 31
87 21 87 -3 0 -15 -5 -26 -11 -11 -5 -29 -7 -39 -4 -30 10 -25 66 14 163 18
45 32 82 31 82 0 0 -13 -12 -28 -27z"/>
<path d="M11035 4745 c-93 -41 -372 -162 -620 -268 -443 -191 -450 -195 -468
-232 -10 -20 -17 -38 -15 -40 2 -1 604 257 1186 510 51 22 67 35 83 66 11 22
16 39 12 38 -5 0 -84 -33 -178 -74z"/>
<path d="M16945 4554 c-335 -146 -617 -272 -626 -282 -8 -9 -21 -29 -27 -44
l-11 -27 52 22 c29 13 311 135 628 271 552 238 577 250 593 283 18 38 19 43 9
42 -5 -1 -282 -120 -618 -265z"/>
<path d="M16180 4625 c-34 -19 -142 -60 -212 -80 -53 -15 -98 -45 -68 -45 49
0 288 102 305 131 8 12 5 11 -25 -6z"/>
</g>
</svg>
