<?xml version="1.0" standalone="no"?>
<!DOCTYPE svg PUBLIC "-//W3C//DTD SVG 20010904//EN"
 "http://www.w3.org/TR/2001/REC-SVG-20010904/DTD/svg10.dtd">
<svg version="1.0" xmlns="http://www.w3.org/2000/svg"
 width="5500.000000pt" height="1740.000000pt" fill='#edf0f0' viewBox="0 0 5500.000000 1740.000000"
 preserveAspectRatio="xMidYMid meet">

<g transform="translate(0.000000,1740.000000) scale(0.100000,-0.100000)"
fill='#edf0f0' stroke="none">
<path d="M39210 14364 c-1702 -623 -3131 -1146 -3175 -1163 -68 -26 -96 -44
-185 -124 -132 -117 -249 -243 -305 -327 -45 -67 -81 -147 -72 -156 3 -3 1447
506 3208 1130 2835 1006 3207 1140 3237 1168 64 62 194 223 262 326 66 100
134 241 128 266 -2 7 -1094 -387 -3098 -1120z"/>
<path d="M12472 15208 c-114 -211 -162 -340 -162 -437 0 -98 57 -580 151
-1271 406 -3004 672 -4894 744 -5285 13 -71 40 -233 60 -360 20 -126 53 -306
72 -400 20 -93 38 -181 40 -195 4 -23 -10 -33 -160 -122 -230 -137 -436 -241
-699 -352 -533 -225 -684 -272 -908 -283 -174 -8 -280 23 -397 115 -95 76
-187 246 -228 427 -8 33 -35 195 -60 360 -115 748 -280 1587 -332 1690 -61
120 -157 241 -215 271 -15 8 -45 14 -67 14 -33 0 -49 -7 -79 -35 -55 -49 -91
-136 -166 -397 -82 -285 -131 -418 -211 -583 -133 -270 -285 -405 -489 -434
-240 -34 -630 125 -768 314 -18 24 -35 44 -38 45 -3 0 -40 -201 -82 -446 l-77
-446 70 -80 c368 -418 576 -969 605 -1604 l7 -149 -68 -64 c-331 -309 -896
-746 -1365 -1053 -1148 -755 -2215 -1161 -3195 -1218 -93 -5 -242 -14 -330
-20 -449 -28 -916 58 -1280 235 -482 234 -800 604 -975 1135 -171 518 -192
1163 -61 1940 17 96 28 176 26 179 -3 2 -40 -27 -82 -66 l-78 -70 -27 -104
c-44 -164 -106 -484 -138 -708 -112 -782 -85 -1505 76 -2040 268 -889 864
-1379 1804 -1482 274 -31 705 -12 1120 47 1264 182 2455 682 3515 1474 385
288 823 685 976 885 229 298 387 772 430 1285 14 167 2 384 -37 650 -22 153
-66 410 -80 467 -5 19 0 23 38 33 168 42 312 124 434 245 186 184 274 385 288
655 9 164 34 247 91 300 l27 25 24 -30 c156 -194 279 -727 324 -1395 20 -297
46 -449 107 -623 65 -187 140 -313 265 -442 91 -96 177 -157 300 -215 181 -84
323 -104 513 -72 455 78 987 331 1555 737 159 114 342 235 355 235 6 0 25 -28
41 -62 91 -194 250 -413 417 -575 226 -219 492 -358 809 -424 181 -37 280 -16
383 82 131 123 229 350 295 676 108 544 90 886 -65 1198 -130 264 -328 401
-628 436 -239 28 -519 -37 -829 -192 -65 -33 -120 -59 -123 -59 -22 0 -102
268 -169 560 -173 757 -414 2252 -666 4119 -185 1377 -185 1376 -157 1444 13
29 21 37 42 37 32 0 100 -61 159 -144 50 -70 119 -136 141 -136 9 0 19 8 22
17 36 93 -269 902 -577 1528 -97 197 -171 325 -188 325 -5 0 -37 -51 -70 -112z
m2338 -8398 c41 -12 104 -37 139 -57 74 -41 175 -139 210 -202 l24 -44 -94 7
c-165 12 -338 52 -465 106 -65 28 -171 100 -218 148 -36 37 -37 40 -17 47 93
29 305 27 421 -5z"/>
<path d="M21586 15237 c-67 -123 -132 -264 -157 -342 -29 -89 -28 -164 5 -315
46 -210 66 -345 267 -1855 110 -825 300 -2258 424 -3185 123 -927 256 -1923
294 -2215 l70 -530 -46 -68 c-53 -79 -167 -188 -263 -252 -250 -166 -573 -257
-920 -259 -150 0 -174 2 -265 27 -124 34 -310 125 -429 211 -89 64 -236 191
-236 204 0 8 148 107 275 184 339 205 641 323 905 353 l55 6 178 397 c97 218
177 401 177 405 0 29 -300 224 -491 320 -175 89 -266 127 -449 189 -826 280
-1764 244 -2703 -107 -199 -74 -417 -169 -428 -186 -4 -7 -62 -168 -129 -358
-68 -190 -142 -401 -166 -468 l-43 -122 57 25 c83 37 213 73 322 89 234 36
451 0 656 -109 165 -88 284 -196 434 -397 51 -68 111 -145 132 -171 l39 -47
-123 -65 c-488 -259 -911 -409 -1193 -423 -293 -15 -628 117 -811 321 -301
333 -432 864 -474 1926 -58 1463 -263 3292 -505 4522 -159 801 -319 1374 -511
1822 -57 133 -149 316 -159 316 -4 0 -82 -234 -135 -409 -73 -241 -130 -487
-130 -562 0 -20 16 -68 39 -115 137 -283 309 -790 405 -1194 163 -682 266
-1482 501 -3885 146 -1492 206 -2071 230 -2213 108 -636 351 -1112 702 -1376
221 -165 474 -245 691 -216 463 60 1124 397 1869 953 l93 68 102 -93 c481
-438 960 -725 1326 -794 104 -20 309 -15 440 11 792 154 1269 916 1386 2210
l13 150 -49 365 c-206 1547 -493 3473 -729 4900 -118 712 -125 839 -47 848 32
4 90 -45 145 -122 52 -73 134 -156 155 -156 10 0 20 10 23 23 18 68 -94 414
-273 847 -199 482 -454 1000 -491 1000 -6 0 -30 -37 -55 -83z m-1641 -7497
c158 -27 339 -71 499 -121 125 -39 128 -41 110 -59 -38 -35 -604 -423 -638
-436 -8 -3 -63 55 -137 143 -157 188 -326 358 -406 407 -35 22 -63 40 -63 42
0 6 112 36 165 45 81 13 339 2 470 -21z"/>
<path d="M23522 15228 c-116 -211 -175 -365 -174 -461 1 -34 19 -150 41 -257
33 -157 79 -501 236 -1750 184 -1469 620 -4927 741 -5865 30 -236 86 -748 123
-1137 70 -729 75 -758 116 -758 44 0 124 201 150 377 60 406 42 1493 -41 2358
-175 1840 -481 4234 -711 5550 -30 176 -38 400 -14 428 33 41 94 5 178 -107
100 -133 164 -182 180 -139 18 47 -68 334 -202 673 -214 544 -519 1180 -564
1180 -4 0 -31 -42 -59 -92z"/>
<path d="M48783 15208 c-158 -252 -240 -421 -250 -515 -4 -38 6 -112 40 -285
95 -483 369 -2010 486 -2713 222 -1330 327 -2110 338 -2516 6 -225 -1 -275
-40 -284 -12 -2 -161 -34 -332 -70 -708 -151 -1266 -293 -1689 -432 -108 -35
-177 -63 -192 -78 -64 -64 -144 -285 -194 -534 -23 -116 -61 -373 -56 -378 2
-2 57 5 122 16 321 54 612 74 1049 74 473 0 875 -27 1395 -93 264 -34 608 -88
629 -100 8 -4 -9 -10 -42 -14 -97 -11 -326 -55 -482 -92 -735 -176 -1262 -482
-1531 -886 -67 -100 -141 -264 -171 -375 -23 -85 -26 -119 -27 -260 -1 -128
-4 -163 -14 -163 -7 0 -46 15 -86 34 -218 100 -459 321 -633 581 -239 356
-406 876 -468 1460 -75 704 -132 1047 -256 1554 -255 1041 -707 2153 -1242
3053 -45 76 -84 138 -87 138 -3 0 -54 -213 -113 -474 l-108 -475 56 -93 c247
-405 557 -1245 878 -2378 124 -435 297 -1098 297 -1136 0 -30 -317 -442 -555
-719 -355 -415 -736 -797 -1075 -1079 -592 -493 -1137 -782 -1672 -887 -147
-30 -389 -32 -488 -6 -335 89 -500 359 -500 822 0 222 45 523 116 769 14 48
23 90 21 92 -2 3 -36 -79 -76 -181 -246 -635 -356 -1169 -322 -1560 15 -180
50 -315 116 -450 90 -187 215 -313 400 -405 159 -78 344 -120 538 -120 94 0
105 2 233 50 752 282 1402 655 1954 1120 170 144 475 448 606 605 400 481 686
985 832 1465 11 36 22 58 25 50 3 -8 11 -60 17 -115 31 -271 117 -662 201
-915 149 -453 351 -832 628 -1180 102 -129 352 -377 486 -483 555 -440 1258
-709 1993 -763 l92 -7 -1 24 c0 13 -21 251 -47 528 l-47 505 -240 81 c-291 98
-414 147 -610 243 -393 192 -548 367 -460 518 150 256 1289 654 3145 1098 239
58 532 126 650 152 118 26 220 52 226 58 11 12 178 915 170 923 -21 21 -2105
198 -2801 238 -60 4 -116 9 -124 11 -9 3 0 14 26 33 130 94 221 292 271 587
36 212 45 366 39 704 -6 339 -12 410 -87 933 -77 533 -273 1735 -419 2567 -28
157 -55 323 -61 370 -37 306 31 363 187 156 100 -133 164 -182 180 -139 36 92
-267 895 -572 1518 -99 203 -175 335 -193 335 -5 0 -40 -51 -79 -112z"/>
<path d="M52307 15258 c-98 -177 -167 -335 -186 -428 -12 -60 -3 -127 53 -400
15 -69 103 -737 196 -1485 181 -1446 542 -4298 716 -5665 75 -587 125 -1029
173 -1533 64 -662 70 -710 90 -730 17 -17 25 -19 39 -11 47 29 111 207 136
375 60 404 42 1484 -39 2339 -174 1830 -441 3927 -691 5430 -50 304 -66 506
-42 550 31 58 102 22 185 -94 52 -73 134 -156 154 -156 66 0 -1 248 -201 750
-209 523 -497 1120 -540 1120 -4 0 -24 -28 -43 -62z"/>
<path d="M43733 15219 c-24 -11 -66 -47 -95 -78 -94 -101 -154 -240 -184 -427
-28 -171 -2 -219 191 -347 142 -93 136 -78 83 -205 -64 -155 -231 -400 -414
-608 -293 -334 -792 -765 -1261 -1089 -84 -57 -101 -74 -96 -90 17 -61 62 -45
277 99 440 294 800 588 1111 907 247 253 413 472 525 692 29 56 54 104 56 106
1 2 47 -24 102 -57 129 -78 139 -81 149 -45 4 15 8 87 8 158 0 161 -10 187
-97 245 l-60 40 -1 217 c-2 196 -5 226 -26 301 -26 91 -62 153 -107 183 -39
25 -108 25 -161 -2z m85 -354 c16 -14 37 -44 47 -67 19 -48 32 -182 19 -190
-9 -6 -206 102 -236 129 -46 41 -25 102 45 134 57 25 90 24 125 -6z"/>
<path d="M30883 14062 l-3162 -1157 -67 -55 c-105 -85 -264 -246 -330 -336
-56 -75 -109 -176 -102 -193 2 -4 1447 505 3211 1130 l3209 1138 61 67 c150
164 243 293 312 436 42 86 55 129 38 128 -5 -1 -1431 -522 -3170 -1158z"/>
<path d="M3155 15178 c-3 -13 -23 -98 -44 -190 l-38 -167 40 -38 c65 -63 190
-223 252 -324 292 -471 369 -1022 219 -1557 -15 -51 -24 -95 -21 -98 3 -3 21
1 40 9 31 13 38 25 71 108 71 182 131 426 157 631 18 147 7 456 -20 592 -31
152 -91 329 -160 472 -123 254 -266 430 -458 563 l-32 22 -6 -23z"/>
<path d="M6922 12861 l-3842 -1487 -77 -64 c-108 -91 -230 -213 -301 -303 -59
-74 -128 -197 -121 -215 2 -5 1752 651 3889 1458 l3885 1467 81 91 c148 165
251 315 306 445 16 38 28 75 26 82 -2 9 -1146 -429 -3846 -1474z"/>
<path d="M18648 13990 c-267 -378 -404 -860 -304 -1065 52 -105 169 -190 301
-218 155 -32 364 73 439 221 54 107 71 268 41 387 -27 104 -63 165 -149 251
-67 66 -98 90 -178 129 -54 27 -100 47 -102 44 -2 -2 -5 -73 -7 -158 l-4 -153
75 -22 c41 -12 94 -32 116 -44 158 -82 189 -222 74 -333 -65 -63 -141 -92
-245 -93 -84 -1 -124 12 -173 58 -67 60 -88 186 -57 337 30 152 132 435 215
599 28 55 29 62 17 92 l-13 32 -46 -64z"/>
<path d="M33662 13359 c-35 -17 -77 -49 -98 -72 -145 -169 -226 -509 -241
-1003 l-6 -211 -48 94 c-203 398 -471 712 -713 833 -127 64 -196 51 -211 -39
-8 -50 19 -178 60 -279 92 -227 168 -290 362 -301 l102 -6 62 -60 c206 -202
344 -511 390 -871 7 -55 14 -101 15 -103 2 -2 28 13 58 34 l54 37 6 117 c22
392 29 502 42 646 30 322 74 544 133 667 47 100 153 198 214 198 62 0 157 -78
235 -192 18 -27 35 -48 37 -48 3 0 36 48 75 106 l71 105 -11 52 c-16 77 -45
130 -99 180 -60 56 -150 102 -249 128 -110 28 -166 25 -240 -12z"/>
<path d="M40287 13308 c-18 -24 -57 -77 -86 -118 l-52 -75 11 -240 c5 -132 12
-275 14 -317 l5 -77 -54 -55 c-151 -153 -284 -156 -362 -9 -62 115 -78 191
-78 358 0 142 2 155 32 240 17 50 29 92 27 94 -10 11 -113 -110 -136 -160 -54
-113 -63 -167 -63 -389 0 -169 3 -217 19 -275 55 -205 175 -325 328 -328 55
-2 74 3 138 35 133 66 232 176 261 288 7 28 15 50 18 50 3 -1 26 -26 51 -57
99 -124 240 -213 337 -213 60 0 159 29 200 58 16 11 41 43 56 70 46 84 58 158
64 388 l6 211 -43 72 c-71 122 -159 312 -177 383 l-17 68 -52 0 -51 0 -31
-155 -32 -155 46 -86 c69 -127 174 -375 174 -410 0 -47 -31 -69 -95 -68 -108
3 -221 62 -251 131 -36 86 -136 399 -159 500 -26 113 -32 231 -15 264 17 31 4
22 -33 -23z"/>
<path d="M10612 12623 c-174 -267 -276 -525 -302 -764 -19 -168 13 -272 109
-362 89 -83 224 -131 324 -116 190 30 326 149 372 326 20 77 19 234 -1 304
-49 164 -157 282 -339 371 l-80 39 -7 -53 c-3 -29 -6 -101 -7 -159 l-1 -106
53 -12 c70 -15 165 -61 209 -100 70 -61 87 -149 46 -231 -30 -58 -92 -104
-174 -130 -227 -70 -384 56 -360 288 17 162 95 403 213 655 45 94 46 99 32
129 l-15 31 -72 -110z"/>
<path d="M47467 12558 c-143 -205 -267 -480 -312 -693 -26 -120 -24 -276 3
-345 43 -110 138 -188 277 -229 72 -22 84 -23 146 -11 92 16 194 67 252 125
87 86 127 198 127 350 0 164 -44 270 -160 386 -61 61 -95 86 -173 124 -53 27
-100 45 -104 42 -3 -4 -8 -74 -11 -156 l-5 -150 44 -11 c69 -17 163 -59 207
-91 100 -73 107 -215 16 -301 -38 -36 -125 -74 -200 -88 -111 -22 -216 27
-267 124 -18 35 -22 57 -21 141 1 157 58 349 190 646 55 125 63 150 55 173 -6
14 -13 26 -15 26 -3 0 -25 -28 -49 -62z"/>
<path d="M19244 11797 c-1798 -719 -1884 -754 -1940 -801 -115 -97 -310 -301
-362 -380 -50 -77 -79 -142 -69 -153 3 -2 862 320 1909 718 l1903 723 80 80
c116 117 237 283 299 411 44 89 72 158 63 154 -1 0 -849 -338 -1883 -752z"/>
<path d="M26379 11603 c-225 -345 -365 -728 -410 -1122 -15 -135 -6 -460 15
-556 42 -185 154 -311 315 -355 56 -15 82 -8 132 37 105 95 159 282 159 548
l0 130 -28 -80 c-36 -106 -76 -173 -108 -181 -34 -9 -98 3 -142 25 -38 20 -97
78 -124 121 -75 123 -109 408 -73 615 26 145 113 396 263 753 33 78 58 142 56
142 -3 0 -27 -35 -55 -77z"/>
<path d="M8023 11490 c-254 -32 -422 -89 -494 -167 -47 -51 -62 -83 -122 -269
-53 -161 -83 -301 -93 -431 -7 -97 -2 -109 30 -74 28 30 149 109 218 141 120
56 144 58 641 63 251 2 457 2 457 0 0 -1 -14 -33 -32 -70 -81 -173 -484 -491
-1158 -915 -161 -102 -166 -105 -198 -166 l-33 -62 53 21 c276 108 792 352
987 468 151 89 245 164 349 278 204 222 332 430 412 672 48 143 72 275 68 378
l-3 78 -85 12 c-306 43 -821 65 -997 43z"/>
<path d="M30155 11383 l-86 -118 5 -125 c3 -69 9 -215 12 -325 l7 -200 -65
-61 c-36 -34 -86 -71 -110 -83 -135 -65 -238 16 -294 232 -40 155 -35 320 15
463 16 46 25 84 20 84 -21 0 -100 -92 -129 -149 -81 -162 -101 -463 -44 -685
66 -256 259 -378 454 -285 134 63 229 164 267 285 9 30 19 54 22 54 3 -1 22
-21 41 -46 51 -67 165 -163 229 -193 111 -52 274 -23 346 62 65 76 95 230 95
493 l0 140 -61 110 c-75 134 -134 266 -158 353 l-18 66 -50 3 -50 3 -32 -158
-33 -158 59 -115 c79 -154 163 -352 163 -384 0 -14 -9 -35 -20 -46 -40 -40
-180 -18 -272 43 -41 27 -62 71 -127 262 -96 285 -130 457 -107 546 7 27 12
49 10 49 -2 0 -42 -53 -89 -117z"/>
<path d="M42637 11049 c-54 -178 -97 -330 -97 -336 0 -7 41 -68 91 -135 140
-190 152 -213 199 -393 67 -260 126 -454 176 -576 92 -229 590 -1341 767
-1714 53 -110 79 -180 86 -223 36 -226 -117 -389 -419 -443 -111 -20 -412 -18
-524 5 -490 97 -815 403 -1000 943 -50 146 -86 300 -206 878 -111 533 -143
677 -202 910 -87 345 -202 667 -310 865 -46 85 -139 230 -148 230 -3 0 -63
-159 -134 -352 l-129 -352 33 -90 c250 -690 407 -1287 451 -1725 15 -144 6
-548 -15 -686 -46 -309 -122 -523 -257 -725 -176 -263 -494 -474 -869 -577
-90 -24 -309 -25 -400 0 -87 23 -230 95 -312 157 -202 153 -390 433 -487 726
-61 183 -66 239 -52 541 6 142 27 510 46 818 49 800 51 832 31 944 -55 311
-191 321 -399 28 -216 -302 -368 -728 -461 -1285 -37 -227 -54 -381 -91 -872
-31 -393 -69 -780 -95 -953 -22 -141 -107 -414 -163 -522 -68 -129 -214 -240
-350 -266 -195 -36 -453 135 -649 430 -240 363 -401 895 -479 1586 -23 207
-22 263 9 435 33 183 45 349 39 561 -4 170 -8 205 -30 286 -86 302 -262 654
-535 1068 -210 319 -215 355 -32 270 56 -26 104 -45 107 -41 9 8 -25 80 -71
151 -127 197 -560 723 -579 705 -6 -5 -127 -785 -127 -816 0 -25 433 -893 565
-1134 122 -222 238 -418 337 -568 85 -129 113 -214 105 -311 -11 -136 -69
-232 -238 -396 -891 -864 -3194 -2305 -6049 -3785 -363 -188 -483 -253 -455
-246 11 3 229 62 485 131 1156 314 1940 542 2140 622 313 124 913 416 1305
633 956 531 1736 1102 2376 1740 267 266 419 437 464 522 l33 61 6 -54 c3 -30
13 -128 21 -219 93 -970 357 -1663 760 -1995 98 -81 267 -167 385 -195 123
-30 317 -38 395 -16 130 38 229 133 318 304 131 254 208 606 227 1042 33 765
66 1124 141 1570 83 493 225 947 280 893 33 -33 37 -216 9 -458 -42 -366 -54
-586 -54 -1010 -1 -444 6 -529 60 -775 146 -654 469 -1030 984 -1143 77 -17
131 -21 280 -21 284 -1 481 40 660 135 251 135 474 399 615 729 130 305 222
693 250 1065 8 95 17 125 39 125 29 0 64 -62 131 -226 170 -422 343 -692 564
-877 254 -214 526 -307 856 -293 337 14 575 108 776 306 224 221 356 526 404
938 24 203 20 338 -14 500 -61 284 -101 379 -456 1072 -358 700 -492 972 -515
1048 -23 73 -26 132 -8 150 29 29 134 -1 236 -68 l32 -22 0 31 c0 108 -315
549 -732 1025 l-34 39 -97 -324z"/>
<path d="M33075 10148 c-2 -7 -40 -201 -85 -432 l-81 -419 63 -55 c301 -266
506 -590 564 -890 25 -133 32 -121 -118 -210 -829 -493 -1956 -923 -3058
-1166 -671 -148 -1311 -229 -2033 -258 -650 -25 -1137 38 -1532 199 -226 92
-392 199 -551 358 -248 248 -382 545 -425 940 -29 274 16 701 106 992 13 42
23 79 21 80 -5 5 -94 -190 -145 -318 -309 -781 -380 -1473 -206 -1996 228
-685 875 -1072 1924 -1153 172 -13 647 -13 861 0 1583 97 3025 448 4206 1024
345 168 645 349 792 475 240 207 410 503 484 844 30 138 32 484 5 652 -76 463
-277 872 -576 1172 -75 75 -191 173 -206 173 -3 0 -7 -6 -10 -12z"/>
<path d="M28024 9926 l-41 -184 64 -69 c365 -388 558 -932 515 -1446 -6 -78
-19 -178 -27 -222 -15 -78 -57 -243 -70 -277 -6 -16 -4 -16 36 0 50 19 64 47
127 244 49 153 86 313 108 473 24 178 15 466 -20 633 -72 338 -223 642 -424
853 -78 82 -196 179 -218 179 -5 0 -27 -83 -50 -184z"/>
<path d="M4690 9766 c-69 -73 -210 -221 -314 -329 l-189 -197 323 -318 c178
-174 327 -317 331 -317 8 0 629 647 629 656 0 6 -647 640 -652 638 -1 -1 -59
-61 -128 -133z"/>
<path d="M2072 8993 c-194 -287 -336 -640 -399 -993 -23 -127 -26 -173 -26
-365 0 -255 13 -348 66 -458 43 -92 109 -160 192 -199 120 -55 171 -48 239 35
67 82 109 209 126 383 11 114 13 228 4 237 -4 3 -19 -30 -35 -75 -15 -44 -41
-97 -57 -117 -25 -31 -36 -36 -75 -39 -97 -6 -201 70 -254 184 -64 140 -87
427 -49 604 32 150 128 417 269 753 25 59 44 107 42 107 -2 0 -22 -26 -43 -57z"/>
<path d="M4799 7366 c-62 -22 -109 -56 -148 -110 -139 -185 -211 -500 -228
-988 l-6 -198 -57 108 c-213 403 -474 703 -715 819 -136 65 -195 39 -195 -88
0 -109 79 -323 156 -424 56 -74 156 -115 279 -115 l82 0 76 -76 c201 -199 351
-549 383 -892 4 -39 10 -72 13 -72 3 0 29 16 58 36 l51 35 6 72 c3 40 10 169
16 287 19 397 55 714 101 900 30 123 78 220 141 286 82 87 125 101 196 65 42
-21 135 -115 177 -178 15 -24 30 -43 34 -42 3 0 37 48 74 106 64 99 69 109 63
147 -23 146 -158 267 -354 317 -87 22 -152 24 -203 5z"/>
<path d="M27581 4873 c-171 -179 -311 -329 -311 -333 0 -4 146 -150 324 -324
l324 -316 315 330 316 330 -315 313 c-174 171 -322 315 -329 319 -8 5 -117
-102 -324 -319z"/>
<path d="M35936 5157 c-19 -143 -19 -161 6 -197 l25 -36 -49 -33 c-82 -57
-171 -191 -217 -329 -27 -81 -28 -179 -1 -231 17 -35 72 -91 88 -91 4 0 14 -5
22 -10 19 -12 22 -9 -180 -144 -377 -253 -874 -497 -1430 -704 -201 -75 -511
-179 -642 -217 -32 -9 -58 -21 -58 -26 0 -13 3 -12 152 17 965 187 1772 523
2224 925 112 101 93 92 158 69 92 -31 294 -79 381 -89 94 -11 146 -3 182 30
57 55 123 253 123 375 0 137 -94 248 -305 358 -155 81 -254 146 -290 188 -26
30 -26 31 -5 45 28 20 25 30 -9 38 -17 3 -61 28 -99 55 l-70 49 -6 -42z m158
-373 c35 -22 65 -89 72 -160 5 -54 3 -63 -24 -104 -17 -25 -47 -60 -66 -79
l-35 -34 -85 33 c-109 42 -141 62 -161 100 -26 50 -12 80 74 164 110 106 159
124 225 80z m258 -166 c212 -147 255 -184 273 -232 22 -56 14 -93 -23 -107
-48 -19 -189 6 -383 67 l-80 25 27 47 c37 65 62 142 70 212 4 33 8 60 10 60 2
0 50 -32 106 -72z"/>
<path d="M15391 4969 c-114 -76 -201 -208 -201 -306 0 -84 6 -89 55 -45 64 56
130 73 207 52 47 -13 158 -87 158 -106 0 -20 -39 -42 -113 -63 -217 -63 -405
-234 -479 -437 -16 -43 -21 -83 -22 -149 0 -143 29 -231 207 -616 145 -312
213 -486 278 -708 45 -156 102 -430 121 -581 11 -93 13 -100 20 -65 4 22 12
165 19 317 10 215 10 305 1 401 -25 268 -139 610 -353 1057 -52 110 -79 177
-79 200 1 86 72 168 208 238 92 47 164 71 337 112 168 39 189 52 211 126 22
78 16 230 -13 295 -33 75 -246 243 -373 296 -82 34 -117 30 -189 -18z"/>
<path d="M45940 4993 c-19 -10 -67 -49 -106 -88 -88 -88 -128 -164 -129 -246
0 -32 3 -60 7 -64 3 -3 27 10 52 29 63 48 116 62 185 48 53 -11 132 -55 166
-92 27 -30 7 -46 -104 -80 -131 -40 -210 -89 -317 -195 -139 -137 -192 -263
-182 -430 7 -112 52 -239 193 -545 233 -508 327 -789 389 -1175 15 -88 30
-178 33 -200 l7 -40 8 60 c4 33 10 204 14 380 5 273 4 334 -10 415 -43 246
-161 574 -338 940 -76 157 -79 168 -76 222 10 142 164 243 497 327 208 52 225
60 248 119 21 56 23 211 4 281 -23 81 -183 223 -348 308 -93 47 -136 53 -193
26z"/>
<path d="M10593 4542 l-312 -327 42 -43 c23 -24 170 -169 327 -322 l285 -277
310 324 c171 178 311 328 313 332 3 9 -634 641 -645 640 -5 0 -148 -148 -320
-327z"/>
<path d="M12095 4643 c-120 -125 -263 -273 -317 -329 l-99 -100 329 -321 328
-321 316 330 315 331 -319 316 c-176 174 -323 317 -327 319 -5 1 -106 -100
-226 -225z"/>
<path d="M24278 3681 l-1736 -667 -79 -66 c-95 -81 -264 -253 -320 -328 -39
-52 -110 -187 -102 -194 2 -2 805 287 1785 643 l1781 647 64 68 c85 91 158
183 224 281 78 116 155 287 129 284 -5 0 -791 -301 -1746 -668z"/>
<path d="M39541 3518 l-1744 -669 -91 -78 c-118 -102 -249 -239 -309 -322 -46
-65 -103 -176 -95 -184 2 -3 805 286 1784 641 l1779 645 43 47 c143 155 264
317 321 430 28 56 64 152 59 157 -2 1 -788 -299 -1747 -667z"/>
</g>
</svg>
