<?xml version="1.0" encoding="UTF-8" standalone="no"?>
<!DOCTYPE svg PUBLIC "-//W3C//DTD SVG 1.1//EN" "http://www.w3.org/Graphics/SVG/1.1/DTD/svg11.dtd">
<svg width="100% " fill='#edf0f0' height="100%" viewBox="0 0 602 207" version="1.1" xmlns="http://www.w3.org/2000/svg" xmlns:xlink="http://www.w3.org/1999/xlink" xml:space="preserve" xmlns:serif="http://www.serif.com/" style="fill-rule:evenodd;clip-rule:evenodd;stroke-linecap:round;stroke-miterlimit:1.5;">
    <g transform="matrix(1,0,0,1,-99.2889,-196.789)">
        <g>
            <g>
                <g id="path7" transform="matrix(1,0,0,1,128.375,240.458)">
                    <path d="M468,28.25C469.33,27.75 471.25,27 473.75,26C476.42,25 479.42,23.83 482.75,22.5C486.25,21.33 490,20 494,18.5L506,14C510,12.5 513.83,11.08 517.5,9.75C517.83,9.58 518.08,9.5 518.25,9.5C521.75,8.17 524.83,7 527.5,6C528.83,5.5 530.08,5.08 531.25,4.75C532.58,4.25 533.83,3.83 535,3.5C536.83,2.67 537.92,2.25 538.25,2.25C538.92,1.92 539.33,1.83 539.5,2C539.67,2.17 539.58,2.5 539.25,3C538.92,4.17 538.58,5 538.25,5.5C537.92,6.17 537.67,6.58 537.5,6.75C537.17,6.92 536.08,7.33 534.25,8C532.25,8.83 529.67,9.83 526.5,11C524.33,11.83 521.92,12.75 519.25,13.75C518.25,14.08 517.17,14.5 516,15C512,16.5 507.92,18 503.75,19.5C499.42,21.17 495.17,22.75 491,24.25C486.83,25.75 483.08,27.25 479.75,28.75C476.25,30.08 473.25,31.25 470.75,32.25C468.25,33.25 466.58,34 465.75,34.5C465.92,33.5 466.17,32.58 466.5,31.75C466.67,30.92 466.92,30.17 467.25,29.5C467.58,28.83 467.83,28.42 468,28.25Z"/>
                </g>
                <g id="path8" transform="matrix(1,0,0,1,128.375,240.458)">
                    <path d="M22.04,89.71C22.04,90.54 21.86,91.43 21.5,92.38C21.15,93.44 20.61,94.45 19.9,95.4C19.31,96.46 18.54,97.47 17.59,98.42C16.64,99.37 15.64,100.26 14.57,101.09C13.5,101.8 12.97,102.09 12.97,101.97C12.85,101.86 13.21,101.38 14.04,100.55C14.63,99.96 15.22,99.31 15.82,98.6L17.59,96.46C18.18,95.87 18.66,95.22 19.01,94.51C19.37,93.8 19.55,93.15 19.55,92.55C19.55,91.96 19.43,91.55 19.19,91.31C18.84,90.96 18.48,90.78 18.13,90.78C17.77,90.66 17.41,90.66 17.06,90.78C16.59,90.9 16.23,91.07 15.99,91.31C15.4,91.67 15.1,91.78 15.1,91.67C14.99,91.67 15.04,91.25 15.28,90.42C15.4,90.07 15.52,89.65 15.64,89.18C15.87,88.7 16.11,88.29 16.35,87.93C16.7,87.46 17.12,87.1 17.59,86.87C18.07,86.63 18.66,86.51 19.37,86.51C19.84,86.51 20.26,86.57 20.61,86.69C20.97,86.93 21.26,87.16 21.5,87.4L21.86,88.47C21.98,88.94 22.04,89.36 22.04,89.71Z"/>
                </g>
                <g id="path9" transform="matrix(1,0,0,1,128.375,240.458)">
                    <path d="M49.79,101.09C49.79,101.83 49.63,102.62 49.31,103.46C49,104.4 48.52,105.3 47.89,106.14C47.37,107.09 46.68,107.98 45.84,108.82C45,109.66 44.11,110.45 43.16,111.19C42.21,111.82 41.74,112.08 41.74,111.98C41.63,111.87 41.95,111.45 42.69,110.71C43.21,110.19 43.74,109.61 44.26,108.98L45.84,107.09C46.37,106.56 46.79,105.98 47.1,105.35C47.42,104.72 47.58,104.14 47.58,103.61C47.58,103.09 47.47,102.72 47.26,102.51C46.95,102.19 46.63,102.04 46.31,102.04C46,101.93 45.68,101.93 45.37,102.04C44.95,102.14 44.63,102.3 44.42,102.51C43.89,102.83 43.63,102.93 43.63,102.83C43.53,102.83 43.58,102.46 43.79,101.72C43.89,101.41 44,101.04 44.11,100.62C44.32,100.2 44.53,99.83 44.74,99.51C45.05,99.09 45.42,98.78 45.84,98.57C46.26,98.36 46.79,98.25 47.42,98.25C47.84,98.25 48.21,98.3 48.52,98.41C48.84,98.62 49.1,98.83 49.31,99.04L49.63,99.99C49.73,100.41 49.79,100.77 49.79,101.09Z"/>
                </g>
                <path id="path3" d="M438.625,246.708C438.295,245.708 438.205,244.878 438.375,244.208C438.375,243.378 438.545,242.788 438.875,242.458C439.205,242.288 439.455,242.128 439.625,241.958C439.955,241.628 440.295,241.458 440.625,241.458C441.125,241.288 441.625,241.288 442.125,241.458C442.795,241.628 443.455,241.878 444.125,242.208C444.795,242.708 445.545,243.208 446.375,243.708C447.045,244.208 447.705,244.788 448.375,245.458C449.205,246.128 449.875,246.878 450.375,247.708C451.045,248.378 451.545,249.128 451.875,249.958C452.045,250.458 452.045,251.038 451.875,251.708L451.375,253.708C451.045,254.538 450.705,255.208 450.375,255.708C449.875,256.208 449.455,256.458 449.125,256.458L447.875,256.458C447.705,256.458 447.455,256.378 447.125,256.208L446.375,256.208C445.875,256.208 445.375,256.128 444.875,255.958L443.875,255.958C443.375,256.628 442.625,257.458 441.625,258.458C440.625,259.628 439.205,260.878 437.375,262.208C435.705,263.538 434.295,264.538 433.125,265.208C431.795,266.038 430.545,266.708 429.375,267.208C428.205,267.708 426.875,268.208 425.375,268.708C424.045,269.208 422.455,269.788 420.625,270.458C419.455,270.958 418.875,271.128 418.875,270.958C418.875,270.788 419.375,270.378 420.375,269.708C422.205,268.378 424.125,267.208 426.125,266.208C427.955,265.038 429.795,263.958 431.625,262.958L437.125,259.458C438.795,258.288 440.375,257.038 441.875,255.708C440.205,255.208 439.045,254.708 438.375,254.208C437.705,253.538 437.375,252.628 437.375,251.458C437.375,250.788 437.455,249.958 437.625,248.958C437.955,247.958 438.295,247.208 438.625,246.708ZM449.875,251.958C449.705,251.628 449.455,251.288 449.125,250.958L448.125,249.708C447.625,249.378 447.205,249.038 446.875,248.708C446.375,248.378 445.875,248.128 445.375,247.958L445.375,250.458C445.205,251.128 445.045,251.708 444.875,252.208L445.375,252.208L445.625,252.458L446.875,252.458C447.205,252.628 447.625,252.708 448.125,252.708L448.625,252.708L449.625,252.958C449.795,252.958 449.875,252.878 449.875,252.708C450.045,252.708 450.045,252.458 449.875,251.958ZM443.375,251.958C443.545,251.458 443.625,250.958 443.625,250.458C443.625,249.958 443.545,249.458 443.375,248.958C443.205,248.458 443.045,248.038 442.875,247.708C442.545,247.378 442.205,247.208 441.875,247.208C441.545,247.208 441.205,247.288 440.875,247.458L439.125,249.208C438.955,249.538 438.875,249.788 438.875,249.958C438.875,250.128 439.045,250.378 439.375,250.708L440.375,251.208L441.875,251.708C442.375,251.708 442.875,251.788 443.375,251.958Z"/>
                <g id="path12" transform="matrix(1,0,0,1,128.375,240.458)">
                    <path d="M212,92.75C212,93.92 211.75,95.17 211.25,96.5C210.75,97.83 210.08,99.25 209.25,100.75C208.25,102.08 207.17,103.5 206,105C204.67,106.33 203.17,107.58 201.5,108.75C200.17,109.75 199.42,110.17 199.25,110C199.25,109.83 199.83,109.17 201,108L203.25,105.25C204.25,104.25 205.08,103.25 205.75,102.25C206.58,101.25 207.25,100.33 207.75,99.5C208.25,98.5 208.5,97.58 208.5,96.75C208.5,95.92 208.33,95.25 208,94.75C207.67,94.42 207.25,94.25 206.75,94.25C206.08,94.08 205.5,94.08 205,94.25C204.5,94.42 204.08,94.58 203.75,94.75C202.92,95.25 202.42,95.5 202.25,95.5L202.5,93.75C202.67,93.25 202.92,92.67 203.25,92C203.42,91.33 203.75,90.75 204.25,90.25C204.58,89.58 205.08,89.08 205.75,88.75C206.58,88.25 207.42,88 208.25,88C209.08,88 209.75,88.17 210.25,88.5C210.75,88.83 211.08,89.17 211.25,89.5C211.58,90 211.83,90.5 212,91L212,92.75Z"/>
                </g>
                <g id="path13" transform="matrix(1,0,0,1,128.375,240.458)">
                    <path d="M157.25,48C157.25,48.83 157.08,49.75 156.75,50.75C156.25,51.58 155.67,52.5 155,53.5C154.5,54.67 153.75,55.67 152.75,56.5C151.92,57.5 150.92,58.42 149.75,59.25C148.75,59.92 148.17,60.25 148,60.25C148,60.08 148.42,59.58 149.25,58.75C149.75,58.25 150.33,57.58 151,56.75C151.67,56.08 152.25,55.42 152.75,54.75C153.25,54.08 153.67,53.42 154,52.75C154.5,51.92 154.75,51.25 154.75,50.75C154.75,50.08 154.58,49.67 154.25,49.5C153.92,49.17 153.58,49 153.25,49C152.92,48.83 152.58,48.83 152.25,49C151.75,49.17 151.42,49.33 151.25,49.5C150.58,49.83 150.25,49.92 150.25,49.75L150.5,48.75C150.5,48.25 150.58,47.83 150.75,47.5C150.92,47 151.17,46.5 151.5,46C151.83,45.67 152.25,45.33 152.75,45C153.25,44.67 153.83,44.5 154.5,44.5C155,44.5 155.42,44.58 155.75,44.75C156.08,45.08 156.42,45.33 156.75,45.5C156.92,45.83 157,46.25 157,46.75C157.17,47.08 157.25,47.5 157.25,48Z"/>
                </g>
                <g id="path14" transform="matrix(1,0,0,1,128.375,240.458)">
                    <path d="M143.75,4.5C143.75,5.33 143.58,6.25 143.25,7.25C142.92,8.25 142.42,9.25 141.75,10.25C141.08,11.25 140.25,12.25 139.25,13.25C138.42,14.25 137.42,15.17 136.25,16L134.75,17C134.58,16.83 134.92,16.33 135.75,15.5L137.5,13.5C138.17,12.83 138.75,12.17 139.25,11.5C139.75,10.67 140.25,9.92 140.75,9.25C141.08,8.58 141.25,8 141.25,7.5C141.25,6.83 141.08,6.33 140.75,6C140.58,5.83 140.25,5.67 139.75,5.5C139.42,5.5 139.08,5.58 138.75,5.75C138.25,5.75 137.92,5.83 137.75,6C137.25,6.33 136.92,6.5 136.75,6.5L137,5.25C137,4.92 137.08,4.5 137.25,4C137.42,3.5 137.67,3.08 138,2.75C138.33,2.25 138.75,1.92 139.25,1.75C139.75,1.42 140.33,1.25 141,1.25C141.5,1.25 141.92,1.33 142.25,1.5C142.75,1.67 143.08,1.92 143.25,2.25C143.42,2.58 143.5,3 143.5,3.5C143.67,3.83 143.75,4.17 143.75,4.5Z"/>
                </g>
                <g id="path15" transform="matrix(1,0,0,1,128.375,240.458)">
                    <path d="M123,96.02C123,96.92 122.73,97.91 122.19,98.98C121.83,99.88 121.29,100.96 120.58,102.21C119.86,103.29 119.05,104.37 118.15,105.45L114.92,108.14C113.84,109.04 113.22,109.4 113.04,109.22C113.04,109.04 113.48,108.5 114.38,107.6L116.27,105.71C116.81,104.82 117.43,104.01 118.15,103.29C118.69,102.57 119.14,101.85 119.5,101.14C120.04,100.42 120.31,99.7 120.31,98.98C120.31,98.44 120.13,98 119.77,97.64C119.41,97.28 119.05,97.1 118.69,97.1C118.33,96.92 117.88,96.92 117.34,97.1C116.99,97.28 116.72,97.46 116.54,97.64L115.46,98.17C115.28,98 115.28,97.55 115.46,96.83L116,95.48C116.18,94.94 116.45,94.4 116.81,93.87C117.17,93.51 117.61,93.15 118.15,92.79C118.69,92.43 119.32,92.25 120.04,92.25C120.58,92.25 121.03,92.43 121.38,92.79C121.74,92.97 122.01,93.24 122.19,93.6C122.55,93.78 122.73,94.14 122.73,94.67C122.91,95.03 123,95.48 123,96.02Z"/>
                </g>
                <g id="path16" transform="matrix(1,0,0,1,128.375,240.458)">
                    <path d="M88.66,94.03C89.45,94.03 90.14,94.32 90.73,94.91C91.52,95.31 92.21,96 92.8,96.99C93.39,97.77 93.89,98.76 94.28,99.94C94.87,101.13 95.27,102.51 95.46,104.09L95.46,104.68C95.66,104.68 95.76,104.48 95.76,104.09L96.35,102.31L96.35,101.72C96.55,101.33 96.65,100.83 96.65,100.24C96.65,99.65 96.75,99.06 96.94,98.46L96.94,98.17C97.14,97.38 97.44,96.69 97.83,96.1C98.03,95.51 98.32,94.91 98.72,94.32C99.11,93.93 99.41,93.53 99.61,93.14C100,92.94 100.3,92.74 100.49,92.55C100.69,92.35 100.89,92.25 101.09,92.25C101.48,92.25 101.88,92.45 102.27,92.84L103.16,93.73C103.36,93.93 103.55,94.22 103.75,94.62L103.75,96.99L103.16,97.58L102.86,98.17C102.66,98.17 102.47,98.07 102.27,97.87C102.27,97.68 102.17,97.58 101.97,97.58C101.97,97.38 101.88,97.28 101.68,97.28C101.48,96.89 101.28,96.59 101.09,96.39L100.49,96.39C100.1,96.39 99.8,96.49 99.61,96.69C99.41,96.89 99.11,97.28 98.72,97.87C98.52,98.46 98.32,99.25 98.13,100.24C97.73,101.23 97.44,102.51 97.24,104.09C97.04,105.67 96.75,106.85 96.35,107.64C96.15,108.43 95.96,108.82 95.76,108.82C95.56,109.61 95.36,110.01 95.17,110.01C94.77,110.01 94.58,109.71 94.58,109.12C94.58,108.72 94.48,108.23 94.28,107.64C94.28,107.24 94.18,106.65 93.98,105.86L93.1,103.79C92.7,103 92.41,102.31 92.21,101.72C92.01,101.13 91.72,100.64 91.32,100.24C91.12,99.85 90.93,99.65 90.73,99.65L90.43,99.65L90.14,99.94L90.14,100.24L89.54,100.24C89.15,100.24 88.85,100.14 88.66,99.94C88.26,99.75 87.97,99.55 87.77,99.35L86.88,98.46C86.68,98.07 86.59,97.77 86.59,97.58L86.88,96.99L86.88,96.69C87.08,96.49 87.28,96.2 87.47,95.8L88.07,94.62L88.66,94.03Z"/>
                </g>
                <g id="path17" transform="matrix(1,0,0,1,128.375,240.458)">
                    <path d="M36.38,13.77C36.61,13.41 36.79,13.24 36.91,13.24C37.03,13.24 37.03,13.41 36.91,13.77C36.79,14.59 36.56,15.47 36.2,16.41C35.97,17.24 35.67,17.94 35.32,18.53C34.97,19.24 34.56,19.82 34.09,20.29C33.62,20.76 33.15,21 32.68,21C32.09,21 31.62,20.82 31.26,20.47C30.91,20.12 30.56,19.71 30.21,19.24C29.97,18.65 29.79,18.06 29.68,17.47C29.56,16.88 29.5,16.3 29.5,15.71C29.5,14.41 29.68,13 30.03,11.47C30.38,10.06 30.73,8.77 31.09,7.59C31.44,6.3 31.85,5.18 32.32,4.24C32.79,3.3 33.09,2.65 33.2,2.3C33.91,0.89 34.32,0.24 34.44,0.36C34.44,0.6 34.26,1.3 33.91,2.48C33.67,3.07 33.44,3.77 33.2,4.59C32.85,5.3 32.56,6.12 32.32,7.06C32.09,7.89 31.85,8.83 31.62,9.89C31.5,10.83 31.44,11.77 31.44,12.71C31.44,13.77 31.62,14.71 31.97,15.53C32.32,16.35 32.85,16.77 33.56,16.77C33.91,16.77 34.26,16.65 34.62,16.41C34.85,16.3 35.09,16.06 35.32,15.71L36.03,14.65L36.38,13.77Z"/>
                </g>
                <g id="path18" transform="matrix(1,0,0,1,128.375,240.458)">
                    <path d="M32.11,42.2C32.11,43.35 31.86,44.59 31.37,45.91C30.87,47.23 30.21,48.54 29.39,49.86C28.4,51.35 27.33,52.75 26.18,54.07C24.86,55.39 23.37,56.62 21.73,57.78C20.41,58.76 19.66,59.18 19.5,59.01L21.23,57.03C21.89,56.37 22.63,55.55 23.46,54.56C24.45,53.57 25.27,52.58 25.93,51.59C26.75,50.61 27.41,49.62 27.91,48.63C28.4,47.64 28.65,46.81 28.65,46.15C28.65,45.17 28.48,44.51 28.15,44.18C27.82,43.85 27.41,43.6 26.92,43.43C26.26,43.43 25.68,43.52 25.19,43.68C24.69,43.85 24.28,44.01 23.95,44.18C23.13,44.67 22.63,44.92 22.47,44.92C22.47,44.75 22.55,44.18 22.71,43.19C22.88,42.69 23.13,42.12 23.46,41.46C23.62,40.8 23.95,40.14 24.45,39.48C24.78,38.98 25.27,38.49 25.93,37.99C26.75,37.66 27.58,37.5 28.4,37.5C29.23,37.5 29.89,37.66 30.38,37.99C30.87,38.16 31.2,38.49 31.37,38.98C31.7,39.31 31.95,39.81 32.11,40.47L32.11,42.2Z"/>
                </g>
                <g id="path19" transform="matrix(1,0,0,1,128.375,240.458)">
                    <path d="M50.25,64.25C50.25,64.58 49.92,65.25 49.25,66.25C48.75,67.42 48,68.67 47,70C46,71.33 44.92,72.67 43.75,74C42.58,75.33 41.42,76.42 40.25,77.25L38.75,78C38.08,78.17 37.33,78.42 36.5,78.75C35.83,79.08 35,79.33 34,79.5L34,79.75L33.5,79.75C32.67,80.08 31.83,80.33 31,80.5L30.75,80.75C29.92,80.92 29.17,81.08 28.5,81.25C27.67,81.58 26.92,81.83 26.25,82C24.75,82.33 24,82.42 24,82.25L25.5,81C26,80.67 26.75,80.25 27.75,79.75C28.58,79.25 29.58,78.67 30.75,78C31.75,77.5 32.83,76.92 34,76.25C34.67,75.92 35.25,75.58 35.75,75.25C36.25,74.92 36.75,74.67 37.25,74.5C38.25,74 39.17,73.5 40,73C40.83,72.5 41.42,72.08 41.75,71.75C41.92,71.58 41.92,71.42 41.75,71.25C41.58,70.92 41.08,70.67 40.25,70.5C39.42,70.33 38.17,70.17 36.5,70C35,69.83 32.92,69.75 30.25,69.75C28.58,69.75 27.25,69.83 26.25,70L24.25,70C23.75,70 23.5,69.92 23.5,69.75C23.5,69.42 23.67,69 24,68.5L26.75,63.75C27.08,63.25 27.5,62.83 28,62.5C28.33,62.17 28.92,61.83 29.75,61.5C30.42,61.33 31.33,61.25 32.5,61.25C33.5,61.08 34.92,61 36.75,61C38.25,61 39.75,61.08 41.25,61.25C42.92,61.25 44.42,61.33 45.75,61.5C47.08,61.83 48.17,62.17 49,62.5C49.83,63 50.25,63.58 50.25,64.25Z"/>
                </g>
                <path id="path4" d="M186.375,254.208C186.045,254.038 185.705,253.788 185.375,253.458C185.205,253.458 185.045,253.378 184.875,253.208C184.375,253.038 183.875,252.708 183.375,252.208C182.875,251.878 182.545,251.458 182.375,250.958C182.045,250.458 181.875,249.878 181.875,249.208C181.875,248.378 182.045,247.538 182.375,246.708C182.875,245.708 183.455,244.878 184.125,244.208C184.795,243.378 185.545,242.708 186.375,242.208C187.205,241.708 188.045,241.458 188.875,241.458C189.375,241.458 189.705,241.538 189.875,241.708C190.205,242.038 190.455,242.378 190.625,242.708C190.795,243.038 190.955,243.458 191.125,243.958L191.125,244.958C191.125,245.958 191.045,246.958 190.875,247.958C190.545,248.958 190.295,249.958 190.125,250.958L191.625,251.708C192.125,252.208 192.545,252.708 192.875,253.208C192.875,253.378 192.795,253.628 192.625,253.958L192.125,254.958L192.125,255.208C191.795,255.538 191.545,255.958 191.375,256.458C191.205,256.788 191.045,257.038 190.875,257.208C190.545,256.708 190.125,256.288 189.625,255.958L188.125,254.958C186.455,257.128 184.545,259.128 182.375,260.958C180.205,262.628 177.875,264.128 175.375,265.458C172.875,266.788 170.295,268.038 167.625,269.208C164.955,270.208 162.455,271.128 160.125,271.958C159.795,272.128 159.455,272.208 159.125,272.208C158.955,272.378 158.705,272.458 158.375,272.458L158.125,272.458C158.125,272.288 158.205,272.128 158.375,271.958C158.545,271.958 158.705,271.878 158.875,271.708C159.045,271.538 159.205,271.458 159.375,271.458L159.375,271.208L159.625,271.208C161.625,269.878 163.875,268.538 166.375,267.208L173.375,263.208C175.875,262.038 178.205,260.708 180.375,259.208C182.545,257.708 184.545,256.038 186.375,254.208ZM188.125,249.958L188.625,248.458C188.625,247.958 188.545,247.538 188.375,247.208C188.375,246.708 188.205,246.288 187.875,245.958C187.705,245.628 187.455,245.458 187.125,245.458C186.955,245.458 186.705,245.538 186.375,245.708C186.045,245.708 185.795,245.788 185.625,245.958C185.295,246.128 185.045,246.288 184.875,246.458C184.705,246.628 184.625,246.788 184.625,246.958C184.625,247.128 184.705,247.378 184.875,247.708C185.205,248.038 185.545,248.288 185.875,248.458C186.205,248.788 186.545,249.038 186.875,249.208C187.375,249.538 187.795,249.788 188.125,249.958Z"/>
                <g id="path21" transform="matrix(1,0,0,1,128.375,240.458)">
                    <path d="M116,59.75C116.17,59.42 116.33,59.25 116.5,59.25L116.5,60C116.33,61 116.08,62 115.75,63C115.42,64 115.08,64.92 114.75,65.75C114.25,66.58 113.67,67.25 113,67.75C112.5,68.25 111.92,68.5 111.25,68.5C109.92,68.5 109,67.83 108.5,66.5C107.83,65.17 107.5,63.33 107.5,61C107.5,60 107.67,58.83 108,57.5C108.17,56.33 108.5,55.08 109,53.75L110,50.25C110.5,48.92 111,47.75 111.5,46.75C111.83,45.75 112.25,44.83 112.75,44C113.08,43.17 113.42,42.58 113.75,42.25C113.75,42.08 113.83,42 114,42C114.17,41.67 114.33,41.42 114.5,41.25C114.67,41.08 114.75,40.92 114.75,40.75C114.92,40.75 115,40.83 115,41C114.83,41.33 114.67,41.83 114.5,42.5C113.67,44.17 112.83,46.25 112,48.75C111,51.25 110.33,54 110,57C109.83,57.83 109.83,58.67 110,59.5C110,60.33 110.17,61 110.5,61.5C110.67,62.17 110.92,62.67 111.25,63C111.58,63.33 112,63.5 112.5,63.5C112.83,63.5 113.17,63.33 113.5,63C114,62.67 114.33,62.33 114.5,62C114.83,61.67 115.08,61.33 115.25,61L116,59.75Z"/>
                </g>
                <g id="path22" transform="matrix(1,0,0,1,128.375,240.458)">
                    <path d="M181.75,3C182.75,3 183.67,3.33 184.5,4C185.33,4.5 186.08,5.25 186.75,6.25C187.42,7.42 188,8.67 188.5,10C189,11.5 189.42,13.08 189.75,14.75L190,15.5L190.25,14.75C190.42,14.25 190.58,13.58 190.75,12.75C190.92,12.08 191.08,11.33 191.25,10.5C191.25,9.67 191.42,8.83 191.75,8C191.92,7 192.17,6.17 192.5,5.5C192.83,4.67 193.17,3.92 193.5,3.25L194.75,2C195.08,1.67 195.42,1.42 195.75,1.25C196.08,1.08 196.33,1 196.5,1C196.83,1 197.25,1.17 197.75,1.5L198.75,2.5C199.08,3 199.33,3.42 199.5,3.75C199.67,4.08 199.75,4.42 199.75,4.75L199.75,5.25C199.58,5.58 199.5,5.92 199.5,6.25L199,7.25C198.83,7.58 198.58,7.75 198.25,7.75C198.08,7.75 197.92,7.58 197.75,7.25L197.25,6.75C197.08,6.42 196.83,6.17 196.5,6C196.33,5.67 196,5.5 195.5,5.5C195.17,5.5 194.92,5.67 194.75,6C194.42,6.17 194.08,6.58 193.75,7.25C193.42,7.92 193.17,8.92 193,10.25C192.67,11.42 192.33,12.92 192,14.75C191.67,16.75 191.33,18.17 191,19C190.67,19.83 190.42,20.33 190.25,20.5C189.92,21.17 189.58,21.58 189.25,21.75C189.08,21.75 189,21.33 189,20.5C189,20.17 188.83,19.67 188.5,19C188.33,18.33 188.17,17.58 188,16.75C187.67,16.08 187.33,15.25 187,14.25C186.67,13.42 186.33,12.67 186,12C185.67,11.33 185.33,10.75 185,10.25C184.83,9.92 184.67,9.75 184.5,9.75L183.75,9.75L183.75,10L183.5,10.25L182.75,10.25C182.58,10.25 182.25,10.17 181.75,10L180.75,9C180.25,8.67 179.92,8.33 179.75,8C179.42,7.67 179.25,7.42 179.25,7.25C179.25,7.08 179.42,6.75 179.75,6.25C179.92,5.92 180.17,5.5 180.5,5C180.83,4.5 181.08,4.08 181.25,3.75L181.75,3Z"/>
                </g>
                <g id="path23" transform="matrix(1,0,0,1,128.375,240.458)">
                    <path d="M163,1.5C163.5,1.5 164.08,1.67 164.75,2C165.58,2.5 166.33,3 167,3.5C167.83,4.17 168.5,4.83 169,5.5C169.67,6.17 170,6.75 170,7.25L169.75,8C169.75,8.33 169.58,8.75 169.25,9.25L168.75,10.25C168.58,10.58 168.42,10.83 168.25,11C167.75,11.17 167.08,11.33 166.25,11.5L166,11.5C165.17,11.67 164.33,11.92 163.5,12.25C162.67,12.58 161.92,12.92 161.25,13.25C160.42,13.58 159.83,14 159.5,14.5C159.67,15.17 159.92,16.08 160.25,17.25C160.42,18.42 160.67,19.67 161,21C161.33,22.33 161.58,23.75 161.75,25.25C162.08,26.75 162.33,28.25 162.5,29.75C162.67,31.25 162.75,32.75 162.75,34.25C162.75,35.58 162.67,36.83 162.5,38C162.33,39.33 162.17,40.25 162,40.75C161.83,41.25 161.67,41.42 161.5,41.25L161.5,38C161.5,35.5 161.25,33.08 160.75,30.75C160.42,28.42 160.08,26.25 159.75,24.25C159.42,22.42 159.08,20.75 158.75,19.25L158.5,19C158.17,17.33 158,16 158,15C158,13.5 158.25,12.33 158.75,11.5C159.08,10.5 159.58,9.75 160.25,9.25C160.92,8.75 161.58,8.42 162.25,8.25C162.92,8.08 163.5,7.92 164,7.75L164.25,7.5C164.08,7.33 163.75,7.08 163.25,6.75C162.75,6.42 162.33,6.25 162,6.25C161.67,6.25 161.33,6.5 161,7C160.67,7.5 160.33,7.92 160,8.25L159.25,9C159.08,9 159.08,8.58 159.25,7.75C159.58,5.42 160.08,3.75 160.75,2.75C161.42,1.92 162.17,1.5 163,1.5Z"/>
                </g>
                <g id="path24" transform="matrix(1,0,0,1,128.375,240.458)">
                    <path d="M9.75,22.5C9.75,22.33 9.67,22.17 9.5,22C9.5,21.5 9.42,20.92 9.25,20.25C8.92,19.42 8.58,18.5 8.25,17.5L8.25,17C7.92,16.17 7.67,15.25 7.5,14.25C7.17,13.25 6.83,12.33 6.5,11.5C6.17,10.67 5.83,9.92 5.5,9.25C5.33,8.75 5.17,8.5 5,8.5C4.67,8.5 4.5,8.58 4.5,8.75C4.33,8.75 4.25,8.83 4.25,9L4,9C4,9.17 3.83,9.25 3.5,9.25C3.17,9.25 2.75,9.08 2.25,8.75C1.92,8.58 1.58,8.33 1.25,8L0.25,7C0.08,6.67 0,6.33 0,6L0.25,5.25C0.42,4.75 0.67,4.25 1,3.75C1.33,3.25 1.58,2.83 1.75,2.5C2.08,2.17 2.33,2 2.5,2C3.33,2 4.17,2.25 5,2.75C5.83,3.42 6.58,4.25 7.25,5.25C7.92,6.25 8.58,7.5 9.25,9C9.75,10.33 10.08,11.92 10.25,13.75L10.5,14.25L10.75,13.75C11.08,13.08 11.25,12.42 11.25,11.75C11.42,11.58 11.5,11.42 11.5,11.25C11.5,10.58 11.58,9.92 11.75,9.25L12.25,6.75C12.42,5.92 12.67,5.08 13,4.25C13.33,3.42 13.75,2.75 14.25,2.25C14.58,1.75 14.92,1.33 15.25,1C15.75,0.5 16.08,0.25 16.25,0.25C16.58,0.08 16.83,0 17,0C17.5,0 17.92,0.08 18.25,0.25C18.58,0.58 18.92,1 19.25,1.5C19.58,1.83 19.83,2.25 20,2.75C20.17,3.08 20.25,3.33 20.25,3.5L20.25,4.25C20.25,4.58 20.17,4.92 20,5.25L19.5,6.25C19.33,6.42 19.17,6.5 19,6.5C18.83,6.5 18.67,6.42 18.5,6.25C18.33,6.25 18.25,6.17 18.25,6L17.75,5.5C17.58,5.17 17.33,4.92 17,4.75C16.83,4.58 16.58,4.5 16.25,4.5C15.92,4.5 15.58,4.58 15.25,4.75C14.92,5.08 14.58,5.58 14.25,6.25C14.08,6.92 13.83,7.83 13.5,9C13.17,10.17 12.83,11.75 12.5,13.75C12.33,14.42 12.17,15.17 12,16L12,16.25C11.83,17.25 11.67,18.17 11.5,19C11.5,19.83 11.42,20.5 11.25,21C11.08,21.67 10.92,22.08 10.75,22.25C11.25,22.42 11.92,22.67 12.75,23C13.42,23.5 14.17,24 15,24.5C15.67,25 16.25,25.58 16.75,26.25C17.25,26.92 17.58,27.5 17.75,28C17.75,28.17 17.67,28.42 17.5,28.75C17.33,29.25 17.17,29.67 17,30L16.5,31.25L16,31.75C15.33,31.92 14.58,32.17 13.75,32.5L11.25,33L8.75,34C8.08,34.33 7.5,34.83 7,35.5C7.33,36.17 7.58,37.17 7.75,38.5C8.08,39.83 8.42,41.42 8.75,43.25C8.92,45.08 9.17,47 9.5,49C9.83,51 10,53 10,55C10.17,57 10.25,58.83 10.25,60.5C10.42,62.17 10.33,63.58 10,64.75C9.83,66.08 9.67,67 9.5,67.5C9.5,68 9.42,68.17 9.25,68C9.25,67.83 9.17,67.5 9,67L9,64.75C9,63.08 8.92,61.25 8.75,59.25L8.25,53.75C7.92,51.75 7.67,49.83 7.5,48C7.33,48 7.25,47.92 7.25,47.75C7.08,46.08 6.83,44.5 6.5,43C6.33,41.33 6.17,39.92 6,38.75C5.83,37.58 5.75,36.67 5.75,36C5.75,34.5 5.92,33.25 6.25,32.25C6.75,31.42 7.33,30.75 8,30.25C8.67,29.75 9.33,29.33 10,29L12,28.5C11.83,28.17 11.5,27.92 11,27.75C10.5,27.42 10.08,27.25 9.75,27.25C9.42,27.25 9.08,27.42 8.75,27.75C8.25,28.25 7.92,28.67 7.75,29C7.42,29.5 7.17,29.75 7,29.75C6.83,29.75 6.83,29.42 7,28.75C7.17,26.75 7.5,25.25 8,24.25C8.5,23.42 9.08,22.83 9.75,22.5Z"/>
                </g>
                <g id="path25" transform="matrix(1,0,0,1,128.375,240.458)">
                    <path d="M96,30.25C96.33,30.58 96.67,30.83 97,31C97.17,31.33 97.25,31.67 97.25,32C97.25,32.33 97.17,32.58 97,32.75C97,33.08 96.83,33.33 96.5,33.5L96,34C95.67,34.17 95.42,34.42 95.25,34.75C94.92,34.92 94.67,35 94.5,35L94.25,35.25C94.08,35.08 94,34.92 94,34.75C94,34.58 93.92,34.42 93.75,34.25C93.75,34.08 93.67,33.83 93.5,33.5C93.33,33.33 93.08,33.17 92.75,33C92.58,32.83 92,32.75 91,32.75C90,32.58 88.92,32.58 87.75,32.75C86.58,32.75 85.33,32.83 84,33C82.83,33.33 81.75,33.67 80.75,34C80.25,34.17 80,34.33 80,34.5C79.83,34.83 79.92,35.08 80.25,35.25C80.42,35.58 80.75,35.92 81.25,36.25C81.58,36.58 82.08,36.92 82.75,37.25L85.75,38.75C86.75,39.08 87.67,39.42 88.5,39.75L88.75,39.75C89.42,40.08 90.08,40.33 90.75,40.5C91.58,40.83 92.25,41.17 92.75,41.5C94.08,42.17 95.08,43 95.75,44C96.42,45.17 96.75,46.17 96.75,47C96.58,47.83 96.25,48.58 95.75,49.25C95.25,49.92 94.75,50.5 94.25,51C93.58,51.5 93,51.92 92.5,52.25C91.83,52.58 91.42,52.67 91.25,52.5C90.08,52.33 88.67,52 87,51.5C85.33,51 83.75,50.5 82.25,50C80.58,49.5 79,49 77.5,48.5C76,47.83 74.75,47.25 73.75,46.75C72.75,46.08 72,45.42 71.5,44.75C70.83,43.92 70.33,43.08 70,42.25C69.83,41.58 69.75,40.83 69.75,40C69.58,39.33 69.58,38.75 69.75,38.25C69.92,38.58 70.25,39 70.75,39.5L72.25,40.75C72.75,41.25 73.33,41.67 74,42L75.5,43C76,43.33 76.75,43.67 77.75,44C78.75,44.5 79.92,45 81.25,45.5C82.58,45.83 83.92,46.25 85.25,46.75C86.58,47.25 87.83,47.75 89,48.25C90.17,48.58 91.17,48.83 92,49C93,49.33 93.58,49.5 93.75,49.5C93.92,48.83 93.58,48.08 92.75,47.25C92.08,46.25 91,45.33 89.5,44.5L87.5,43.5C86.67,43.17 85.75,42.83 84.75,42.5C84.08,42.17 83.42,41.92 82.75,41.75C82.58,41.58 82.42,41.5 82.25,41.5C81.42,41.17 80.67,40.83 80,40.5C78.83,39.83 77.92,39.17 77.25,38.5C76.58,37.83 76.25,37.25 76.25,36.75C76.08,36.08 76.25,35.5 76.75,35C77.25,34.5 77.92,34 78.75,33.5C80.58,32.33 82.33,31.42 84,30.75C85.83,30.08 87.58,29.67 89.25,29.5C90.75,29.33 92.08,29.33 93.25,29.5C94.42,29.67 95.33,29.92 96,30.25Z"/>
                </g>
                <g id="path26" transform="matrix(1,0,0,1,128.375,240.458)">
                    <path d="M150.25,24.25C150.25,24.58 149.92,25.25 149.25,26.25C148.75,27.42 148,28.67 147,30C146,31.33 144.92,32.67 143.75,34C142.58,35.33 141.33,36.42 140,37.25C139.83,37.58 139.42,37.83 138.75,38C138.08,38.33 137.33,38.58 136.5,38.75L134,39.75C133.67,39.75 133.42,39.83 133.25,40C132.42,40.17 131.67,40.33 131,40.5L130.75,40.75L128.5,41.25L126.25,42C124.75,42.33 124,42.42 124,42.25L125.5,41C126,40.67 126.75,40.25 127.75,39.75L130.5,38L131,38C131.83,37.5 132.83,36.92 134,36.25L136,35.25C136.33,35.08 136.75,34.83 137.25,34.5C138.25,34 139.17,33.5 140,33C140.83,32.5 141.42,32.08 141.75,31.75C141.92,31.58 141.92,31.42 141.75,31.25C141.58,30.92 141.08,30.67 140.25,30.5C139.42,30.33 138.17,30.17 136.5,30C135,29.83 132.92,29.75 130.25,29.75C128.58,29.75 127.25,29.83 126.25,30L124,30C123.67,30 123.5,29.92 123.5,29.75C123.5,29.58 123.67,29.17 124,28.5L126.75,23.75C127.08,23.25 127.5,22.83 128,22.5C128.33,22.17 128.83,21.92 129.5,21.75C130.33,21.42 131.25,21.25 132.25,21.25C133.42,21.08 134.92,21 136.75,21C138.25,21 139.75,21.08 141.25,21.25C142.92,21.25 144.42,21.42 145.75,21.75C147.08,21.92 148.17,22.17 149,22.5C149.83,23 150.25,23.58 150.25,24.25Z"/>
                </g>
                <g id="path27" transform="matrix(1,0,0,1,128.375,240.458)">
                    <path d="M135.75,97.25C136.75,96.92 138.08,96.42 139.75,95.75C140.08,95.75 140.42,95.67 140.75,95.5C142.08,95 143.58,94.42 145.25,93.75C147.42,92.92 149.5,92.17 151.5,91.5C153,91 154.42,90.5 155.75,90C156.42,89.83 157.08,89.58 157.75,89.25C158.58,88.92 159.42,88.67 160.25,88.5C160.92,88.17 161.58,87.92 162.25,87.75C163.58,87.25 164.42,86.92 164.75,86.75C165.25,86.58 165.5,86.58 165.5,86.75C165.67,86.75 165.67,87 165.5,87.5C165.17,88.17 164.83,88.75 164.5,89.25C164.33,89.75 164.17,90 164,90C163.83,90.17 163.08,90.5 161.75,91C160.42,91.5 158.75,92.08 156.75,92.75C154.92,93.58 152.83,94.42 150.5,95.25L143.5,97.75C141.5,98.58 139.58,99.33 137.75,100C136.08,100.67 134.92,101.25 134.25,101.75C134.42,100.92 134.58,100.25 134.75,99.75C134.92,99.08 135.08,98.58 135.25,98.25C135.42,97.75 135.58,97.42 135.75,97.25Z"/>
                </g>
                <g id="path28" transform="matrix(1,0,0,1,128.375,240.458)">
                    <path d="M178.75,33.75L182.5,32.25C184.17,31.58 186.08,30.92 188.25,30.25C190.25,29.42 192.33,28.58 194.5,27.75C196.17,27.25 197.75,26.75 199.25,26.25C199.75,26.08 200.17,25.92 200.5,25.75L203,24.75C203.83,24.58 204.58,24.33 205.25,24C206.42,23.67 207.17,23.42 207.5,23.25C208,23.08 208.33,23 208.5,23C208.5,23.17 208.42,23.42 208.25,23.75C207.92,24.58 207.67,25.25 207.5,25.75C207.17,26.08 207,26.33 207,26.5C206.83,26.67 206.08,27 204.75,27.5L204.25,27.5C203.08,28 201.58,28.58 199.75,29.25C197.75,29.92 195.58,30.75 193.25,31.75C190.92,32.58 188.67,33.42 186.5,34.25L186,34.25C184,35.08 182.25,35.83 180.75,36.5C178.92,37.17 177.67,37.75 177,38.25C177.17,37.42 177.33,36.67 177.5,36C177.67,35.5 177.92,35 178.25,34.5C178.42,34.17 178.58,33.92 178.75,33.75Z"/>
                </g>
                <g id="path29" transform="matrix(1,0,0,1,128.375,240.458)">
                    <path d="M289.25,5.75C289.25,6.92 289,8.08 288.5,9.25C288.17,10.58 287.5,11.92 286.5,13.25C285.67,14.58 284.67,15.83 283.5,17C282.33,18.33 281,19.5 279.5,20.5C278.17,21.5 277.5,21.92 277.5,21.75C277.33,21.58 277.83,20.92 279,19.75C279.67,19.08 280.42,18.25 281.25,17.25C282.08,16.42 282.83,15.58 283.5,14.75C284.17,13.75 284.75,12.83 285.25,12C285.75,11 286,10.17 286,9.5C286,8.67 285.83,8.08 285.5,7.75C285.17,7.42 284.75,7.17 284.25,7C283.75,7 283.25,7.08 282.75,7.25C282.25,7.25 281.83,7.42 281.5,7.75C280.83,8.25 280.42,8.42 280.25,8.25L280.5,6.75C280.67,6.25 280.83,5.67 281,5C281.17,4.5 281.5,3.92 282,3.25C282.33,2.75 282.83,2.33 283.5,2C284.17,1.67 284.92,1.5 285.75,1.5C286.42,1.5 287,1.58 287.5,1.75C288,2.08 288.33,2.42 288.5,2.75C288.83,3.25 289.08,3.75 289.25,4.25L289.25,5.75Z"/>
                </g>
                <g id="path30" transform="matrix(1,0,0,1,128.375,240.458)">
                    <path d="M369.75,1L369,3.25C368.83,3.58 368.67,3.75 368.5,3.75C368.33,3.92 367.92,4.17 367.25,4.5C366.42,4.67 365.5,5 364.5,5.5L364,5.5L362.5,6C361.67,6.33 360.75,6.67 359.75,7C358.08,7.67 356.33,8.33 354.5,9C353.5,9.33 352.5,9.75 351.5,10.25C350.67,10.42 349.83,10.67 349,11C347.17,11.67 345.42,12.33 343.75,13C342.08,13.67 340.58,14.33 339.25,15L339,15L335.5,16.75C334.33,17.25 333.5,17.67 333,18C332.33,18.5 332,18.83 332,19C331.83,19.17 331.83,19.42 332,19.75L333,20.25C333.67,20.58 334.33,20.83 335,21C335.67,21.33 336.25,21.58 336.75,21.75C337.08,21.75 337.25,21.83 337.25,22L337.25,24.75C337.25,25.08 337.17,25.33 337,25.5L336,25.5C335.5,25.33 334.92,25.17 334.25,25C333.58,24.83 332.92,24.58 332.25,24.25C331.75,23.92 331.25,23.5 330.75,23C330.42,22.5 330.25,21.92 330.25,21.25C330.25,20.75 330.33,20.08 330.5,19.25C330.83,18.42 331.25,17.67 331.75,17C332.25,16.17 332.83,15.42 333.5,14.75C334,14.08 334.58,13.5 335.25,13L337.25,12C338.42,11.67 339.83,11.17 341.5,10.5C342.83,10 344.33,9.42 346,8.75C346.33,8.58 346.58,8.5 346.75,8.5L349.25,7.5C350.42,7.17 351.58,6.75 352.75,6.25C354.75,5.58 356.67,4.92 358.5,4.25C360.33,3.58 362,2.92 363.5,2.25L367.25,1C367.92,0.83 368.42,0.67 368.75,0.5L369,0.5C369.67,0.17 370,0.08 370,0.25C370.17,0.25 370.08,0.5 369.75,1Z"/>
                </g>
                <g id="path31" transform="matrix(1,0,0,1,128.375,240.458)">
                    <path d="M281,35.75C281.5,35.75 282.08,36 282.75,36.5C283.58,36.83 284.33,37.33 285,38C285.83,38.5 286.5,39.08 287,39.75C287.5,40.42 287.83,41 288,41.5C288,41.67 287.92,41.92 287.75,42.25C287.58,42.75 287.42,43.17 287.25,43.5C287.08,44 286.92,44.42 286.75,44.75C286.58,45.08 286.42,45.25 286.25,45.25C285.75,45.42 285.17,45.58 284.5,45.75C284.33,45.75 284.17,45.83 284,46L281.5,46.5L279,47.5C278.33,47.83 277.75,48.33 277.25,49C277.58,49.67 277.92,50.5 278.25,51.5C278.42,52.67 278.67,53.92 279,55.25C279.33,56.58 279.58,58 279.75,59.5C280.08,61.17 280.33,62.67 280.5,64C280.5,65.5 280.58,67 280.75,68.5C280.75,69.83 280.67,71.08 280.5,72.25L280,75C279.83,75.5 279.67,75.75 279.5,75.75L279.5,74.5C279.33,74 279.25,73.25 279.25,72.25C279.25,69.75 279.08,67.33 278.75,65C278.42,62.67 278.08,60.5 277.75,58.5C277.25,56.67 276.83,55 276.5,53.5L276.5,53.25C276.17,51.75 276,50.5 276,49.5C276,48 276.25,46.75 276.75,45.75C277.08,44.92 277.58,44.25 278.25,43.75C278.92,43.08 279.58,42.67 280.25,42.5C280.92,42.33 281.5,42.17 282,42L282.25,42C282.08,41.67 281.75,41.42 281.25,41.25C280.75,40.92 280.33,40.75 280,40.75C279.67,40.75 279.33,40.92 279,41.25C278.67,41.75 278.33,42.17 278,42.5C277.67,43 277.42,43.25 277.25,43.25C277.08,43.25 277.08,42.92 277.25,42.25C277.42,39.75 277.92,38.08 278.75,37.25C279.42,36.25 280.17,35.75 281,35.75Z"/>
                </g>
                <g id="path32" transform="matrix(1,0,0,1,128.375,240.458)">
                    <path d="M239.75,4C240.75,4 241.67,4.25 242.5,4.75C243.33,5.25 244.08,6.08 244.75,7.25C245.42,8.25 246,9.42 246.5,10.75C247,12.25 247.42,13.83 247.75,15.5C247.75,16 247.83,16.25 248,16.25L248.25,15.5C248.42,15 248.58,14.33 248.75,13.5C248.92,12.83 249.08,12.08 249.25,11.25C249.25,10.42 249.33,9.58 249.5,8.75L250.5,6.25C250.83,5.42 251.17,4.75 251.5,4.25C252,3.58 252.42,3.08 252.75,2.75C253.08,2.42 253.42,2.17 253.75,2L254.5,1.75C254.83,1.75 255.25,1.92 255.75,2.25C256.08,2.58 256.42,3 256.75,3.5C257.08,3.83 257.33,4.17 257.5,4.5C257.67,5 257.75,5.33 257.75,5.5C257.75,5.67 257.67,5.92 257.5,6.25C257.5,6.58 257.42,6.92 257.25,7.25C257.25,7.58 257.17,7.83 257,8C256.83,8.33 256.58,8.5 256.25,8.5C256.08,8.5 255.92,8.42 255.75,8.25C255.58,7.92 255.42,7.67 255.25,7.5C255.08,7.17 254.83,6.92 254.5,6.75C254.17,6.58 253.83,6.5 253.5,6.5C253.17,6.5 252.83,6.58 252.5,6.75L251.75,8.25C251.42,8.92 251.17,9.83 251,11C250.67,12.17 250.33,13.75 250,15.75C249.67,17.58 249.33,18.92 249,19.75C248.67,20.58 248.42,21.08 248.25,21.25C247.92,22.08 247.58,22.5 247.25,22.5C246.92,22.5 246.75,22.17 246.75,21.5C246.75,21.17 246.67,20.67 246.5,20C246.33,19.33 246.17,18.58 246,17.75L244,12.75C243.67,12.08 243.33,11.58 243,11.25C242.83,10.75 242.58,10.5 242.25,10.5L241.75,10.5L241.75,10.75L241.5,11C241.33,11.17 241.08,11.25 240.75,11.25C240.42,11.25 240.08,11.08 239.75,10.75C239.42,10.58 239,10.33 238.5,10C238.17,9.67 237.92,9.25 237.75,8.75C237.42,8.42 237.25,8.17 237.25,8C237.25,7.83 237.33,7.58 237.5,7.25L238.5,5.75C238.67,5.25 238.92,4.83 239.25,4.5L239.75,4Z"/>
                </g>
                <g id="path33" transform="matrix(1,0,0,1,128.375,240.458)">
                    <path d="M260,50C260,50.5 259.92,51.17 259.75,52C259.58,52.67 259.33,53.33 259,54C258.83,54.83 258.5,55.5 258,56C257.5,56.5 256.92,56.75 256.25,56.75C255.58,56.75 255,56.58 254.5,56.25L253.5,55.25C253.17,54.75 252.92,54.33 252.75,54C252.58,53.5 252.42,53.17 252.25,53C252.25,53.17 252.08,53.58 251.75,54.25C251.58,54.75 251.33,55.25 251,55.75C250.67,56.25 250.17,56.75 249.5,57.25C249,57.58 248.33,57.75 247.5,57.75C246.67,57.75 245.92,57.33 245.25,56.5C244.42,55.5 244,54.08 244,52.25L244,48.25C244,48.08 243.92,47.92 243.75,47.75L243.25,47.75L243,47.5C242.83,47.33 242.75,47.08 242.75,46.75C242.75,46.25 242.83,45.75 243,45.25C243.33,44.75 243.58,44.33 243.75,44C244.08,43.67 244.42,43.42 244.75,43.25C245.08,43.08 245.33,43 245.5,43C245.83,43 246,43.17 246,43.5L246,47C246,47.33 245.92,47.58 245.75,47.75L245.75,50.75L246.25,52.25C246.42,52.58 246.67,52.92 247,53.25C247.33,53.58 247.67,53.75 248,53.75C248.33,53.75 248.75,53.67 249.25,53.5C249.75,53.17 250.17,52.83 250.5,52.5C250.83,52.17 251.08,51.75 251.25,51.25C251.42,50.75 251.5,50.25 251.5,49.75L251.5,48.25L251,46.75L251,46.5C251,46.17 250.92,45.83 250.75,45.5L250.75,45C250.58,44.5 250.5,44.08 250.5,43.75L250.5,43C250.67,42.83 250.83,42.58 251,42.25L251.25,41.5C251.42,41.33 251.58,41.25 251.75,41.25C251.92,41.25 252.08,41.5 252.25,42C252.42,42.67 252.58,43.42 252.75,44.25L253.25,46.75C253.42,47.58 253.5,48.17 253.5,48.5C253.5,49.67 253.83,50.67 254.5,51.5C255.17,52.33 255.92,52.75 256.75,52.75C257.08,52.75 257.42,52.58 257.75,52.25C258.08,52.08 258.33,51.75 258.5,51.25C258.17,50.75 257.83,50.17 257.5,49.5C257.17,48.83 256.92,48.17 256.75,47.5C256.42,46.83 256.17,46.17 256,45.5C255.83,44.83 255.75,44.33 255.75,44L255.75,42.5C255.92,42.17 256.17,41.75 256.5,41.25C256.83,40.92 257,40.67 257,40.5C257.17,40.5 257.25,40.67 257.25,41C257.42,41.17 257.5,41.42 257.5,41.75L257.5,42C257.5,42.5 257.58,43.08 257.75,43.75C258.08,44.25 258.33,44.83 258.5,45.5C258.67,46 258.92,46.5 259.25,47C259.42,47.67 259.58,48.25 259.75,48.75C259.92,49.25 260,49.67 260,50Z"/>
                </g>
                <g id="path34" transform="matrix(1,0,0,1,128.375,240.458)">
                    <path d="M285.5,106.5C286.17,106.33 287.08,106 288.25,105.5C289.08,105.17 289.92,104.92 290.75,104.75C291.25,104.42 291.75,104.17 292.25,104L296.75,102.5C297.42,102.33 298.08,102.08 298.75,101.75C299.58,101.58 300.33,101.33 301,101C302,100.67 302.92,100.33 303.75,100L304.25,100C304.58,99.83 304.92,99.75 305.25,99.75C305.75,99.58 306.08,99.42 306.25,99.25C306.75,99.08 307,99.08 307,99.25C307.17,99.25 307.17,99.5 307,100C306.67,100.67 306.33,101.25 306,101.75C305.83,102.08 305.67,102.33 305.5,102.5C305.33,102.67 304.75,102.92 303.75,103.25C302.75,103.58 301.58,104 300.25,104.5C299.75,104.67 299.25,104.92 298.75,105.25C297.75,105.58 296.67,105.92 295.5,106.25C294.33,106.75 293.25,107.17 292.25,107.5C291.58,107.67 291,107.92 290.5,108.25C289,108.75 287.67,109.25 286.5,109.75C285.17,110.25 284.25,110.67 283.75,111C283.92,110.33 284.17,109.67 284.5,109L285,107.5C285.17,107 285.33,106.67 285.5,106.5Z"/>
                </g>
                <g id="path35" transform="matrix(1,0,0,1,128.375,240.458)">
                    <path d="M432.75,71.5C432.75,72.67 432.5,73.92 432,75.25C431.5,76.58 430.83,78 430,79.5C429,80.83 427.92,82.17 426.75,83.5C425.42,85 423.92,86.25 422.25,87.25C420.92,88.25 420.17,88.75 420,88.75C420,88.58 420.58,87.83 421.75,86.5C422.42,85.83 423.17,85 424,84C425,83 425.83,82 426.5,81C427.33,80 428,79 428.5,78C429,77.17 429.25,76.33 429.25,75.5C429.25,74.67 429.08,74 428.75,73.5C428.42,73.17 427.92,73 427.25,73C426.75,72.83 426.25,72.83 425.75,73C425.25,73.17 424.83,73.33 424.5,73.5C423.67,74 423.17,74.25 423,74.25C423,74.08 423.08,73.5 423.25,72.5C423.42,72 423.67,71.42 424,70.75C424.17,70.08 424.5,69.42 425,68.75C425.33,68.25 425.83,67.75 426.5,67.25C427.17,66.92 428,66.75 429,66.75C429.83,66.75 430.5,66.92 431,67.25C431.5,67.42 431.83,67.75 432,68.25C432.33,68.75 432.5,69.25 432.5,69.75C432.67,70.25 432.75,70.83 432.75,71.5Z"/>
                </g>
                <g id="path36" transform="matrix(1,0,0,1,128.375,240.458)">
                    <path d="M431.5,47.75C431.67,47.25 431.83,47 432,47C432.17,47 432.25,47.25 432.25,47.75C432.08,48.92 431.75,50.17 431.25,51.5C430.92,52.67 430.5,53.75 430,54.75C429.5,55.58 428.92,56.33 428.25,57C427.58,57.5 426.83,57.75 426,57.75C424.5,57.92 423.42,57.17 422.75,55.5C421.92,53.83 421.58,51.67 421.75,49C421.75,47.83 421.92,46.5 422.25,45C422.58,43.67 422.92,42.25 423.25,40.75C423.58,39.25 424.08,37.83 424.75,36.5C425.25,35 425.75,33.67 426.25,32.5C426.75,31.33 427.25,30.25 427.75,29.25C428.25,28.25 428.67,27.58 429,27.25C429,27.08 429.08,26.92 429.25,26.75C429.42,26.58 429.58,26.33 429.75,26L430.25,25.5L430.25,26L429.75,27.5C428.75,29.5 427.75,31.92 426.75,34.75C425.75,37.75 425,40.92 424.5,44.25C424.33,45.42 424.33,46.42 424.5,47.25C424.5,48.25 424.67,49.08 425,49.75C425.33,50.42 425.67,51 426,51.5C426.5,51.83 427,52 427.5,52C428,51.83 428.42,51.67 428.75,51.5C429.25,51.17 429.67,50.75 430,50.25C430.33,49.92 430.58,49.5 430.75,49C431.08,48.5 431.33,48.08 431.5,47.75Z"/>
                </g>
                <g id="path37" transform="matrix(1,0,0,1,128.375,240.458)">
                    <path d="M417.75,3C418.58,3 419.42,3.33 420.25,4C421.08,4.5 421.83,5.25 422.5,6.25C423.33,7.42 424,8.67 424.5,10C425,11.5 425.42,13.08 425.75,14.75L425.75,15.5C425.92,15.5 426,15.25 426,14.75C426.33,14.25 426.58,13.58 426.75,12.75C426.75,12.08 426.83,11.33 427,10.5L427.5,8C427.67,7.17 427.92,6.33 428.25,5.5C428.58,4.67 429,4 429.5,3.5C429.83,2.83 430.17,2.33 430.5,2C431,1.67 431.42,1.42 431.75,1.25C431.92,1.08 432.08,1 432.25,1C432.75,1 433.17,1.17 433.5,1.5C434,1.83 434.33,2.17 434.5,2.5C434.83,3 435.08,3.42 435.25,3.75C435.42,4.25 435.5,4.58 435.5,4.75L435.5,5.25C435.5,5.58 435.42,6 435.25,6.5C435.08,6.83 434.92,7.08 434.75,7.25C434.58,7.58 434.42,7.75 434.25,7.75C434.08,7.75 433.92,7.67 433.75,7.5L433,6.75C432.83,6.42 432.67,6.17 432.5,6C432.17,5.83 431.83,5.75 431.5,5.75C431.17,5.75 430.83,5.83 430.5,6C430.17,6.17 429.92,6.58 429.75,7.25C429.42,8.08 429.08,9.08 428.75,10.25C428.42,11.42 428.08,12.92 427.75,14.75C427.42,16.75 427.08,18.17 426.75,19C426.42,19.83 426.25,20.33 426.25,20.5C425.75,21.33 425.42,21.75 425.25,21.75C424.92,21.75 424.75,21.33 424.75,20.5C424.75,20.17 424.67,19.75 424.5,19.25C424.33,18.58 424.08,17.83 423.75,17C423.58,16.17 423.33,15.33 423,14.5L421.75,12C421.42,11.33 421.17,10.75 421,10.25C420.67,9.92 420.42,9.75 420.25,9.75L419.75,9.75C419.58,9.75 419.5,9.83 419.5,10C419.5,10.17 419.42,10.25 419.25,10.25L418.75,10.25C418.42,10.25 418.08,10.17 417.75,10C417.25,9.83 416.83,9.5 416.5,9L415.5,8C415.33,7.67 415.25,7.42 415.25,7.25C415.25,7.08 415.33,6.83 415.5,6.5C415.67,6 415.92,5.5 416.25,5C416.58,4.5 416.83,4.08 417,3.75C417.33,3.25 417.58,3 417.75,3Z"/>
                </g>
                <path id="path5" d="M452.125,282.958C450.795,282.288 449.705,281.538 448.875,280.708C448.045,280.038 447.625,279.128 447.625,277.958C447.625,277.788 447.705,277.538 447.875,277.208C447.875,276.878 447.955,276.378 448.125,275.708C448.295,275.208 448.625,274.628 449.125,273.958C449.455,273.458 449.955,272.878 450.625,272.208C451.455,271.378 452.295,270.878 453.125,270.708C454.125,270.208 454.875,270.128 455.375,270.458C456.045,270.628 456.455,271.128 456.625,271.958C456.955,272.788 457.045,273.708 456.875,274.708C456.875,275.538 456.705,276.458 456.375,277.458C456.205,278.458 456.045,279.208 455.875,279.708C456.375,280.038 456.955,280.378 457.625,280.708L458.875,281.958C458.875,282.128 458.795,282.378 458.625,282.708L457.875,283.958C457.705,284.288 457.545,284.708 457.375,285.208L456.625,285.958C456.625,285.788 456.455,285.628 456.125,285.458C456.125,285.288 456.045,285.208 455.875,285.208L455.375,284.708L455.125,284.708L454.625,284.208C454.295,284.038 454.045,283.878 453.875,283.708C453.375,284.378 452.705,285.288 451.875,286.458C450.875,287.628 449.375,288.878 447.375,290.208C445.705,291.378 444.295,292.378 443.125,293.208C441.795,294.038 440.545,294.708 439.375,295.208C438.205,295.708 436.955,296.208 435.625,296.708C434.295,297.208 432.625,297.788 430.625,298.458C429.455,298.788 428.875,298.878 428.875,298.708C428.875,298.538 429.375,298.208 430.375,297.708C432.045,296.538 433.875,295.378 435.875,294.208L441.875,290.708C443.705,289.538 445.545,288.288 447.375,286.958C449.205,285.788 450.795,284.458 452.125,282.958ZM454.125,278.708C454.295,278.378 454.375,277.958 454.375,277.458L454.375,275.958C454.205,275.458 454.045,275.038 453.875,274.708C453.545,274.378 453.205,274.208 452.875,274.208C452.705,274.208 452.455,274.288 452.125,274.458C451.955,274.458 451.705,274.538 451.375,274.708C451.205,274.878 450.955,275.038 450.625,275.208C450.455,275.378 450.375,275.628 450.375,275.958C450.375,276.128 450.545,276.288 450.875,276.458C451.045,276.788 451.295,277.038 451.625,277.208C451.955,277.538 452.375,277.788 452.875,277.958C453.205,278.288 453.625,278.538 454.125,278.708Z"/>
                <g id="path39" transform="matrix(1,0,0,1,128.375,240.458)">
                    <path d="M382,40C381.67,40.67 381.42,41.08 381.25,41.25C381.08,41.42 380.92,41.5 380.75,41.5L380.75,40.75C380.75,40.42 380.83,40.08 381,39.75C381,39.25 381.08,38.75 381.25,38.25C381.58,37.75 381.75,37.08 381.75,36.25C382.08,33.42 381.92,31 381.25,29C380.75,26.83 380,25 379,23.5C378.17,22 377.25,20.75 376.25,19.75C375.25,18.75 374.5,18.08 374,17.75L373.5,17.25C373.5,17.08 373.58,16.92 373.75,16.75L375.25,14L375.5,13.75C375.67,13.92 375.83,14 376,14C376.67,14.67 377.5,15.42 378.5,16.25C379.5,17.25 380.42,18.58 381.25,20.25C382.08,21.75 382.75,23.67 383.25,26C383.75,28.33 383.83,31.08 383.5,34.25C383.33,36.25 382.83,38.17 382,40Z"/>
                </g>
                <g id="path40" transform="matrix(1,0,0,1,128.375,240.458)">
                    <path d="M363,33.25L363,36.5C362.83,37.17 362.58,37.92 362.25,38.75C361.92,39.42 361.58,40 361.25,40.5C360.75,41 360.17,41.25 359.5,41.25C358.83,41.25 358.25,41.08 357.75,40.75C357.25,40.58 356.83,40.25 356.5,39.75C356.33,39.42 356.08,39 355.75,38.5C355.58,38.17 355.5,37.83 355.5,37.5L355,38.75C354.83,39.25 354.58,39.83 354.25,40.5C353.92,41 353.42,41.42 352.75,41.75C352.25,42.25 351.5,42.5 350.5,42.5C349.83,42.5 349.08,42 348.25,41C347.58,40.17 347.25,38.83 347.25,37L347.25,33C347.25,32.67 347.17,32.5 347,32.5C346.83,32.33 346.67,32.25 346.5,32.25C346.33,32.25 346.17,32.17 346,32C345.83,31.83 345.75,31.58 345.75,31.25C345.75,30.75 345.92,30.25 346.25,29.75C346.42,29.42 346.67,29.08 347,28.75L348,27.75C348.17,27.58 348.33,27.5 348.5,27.5C348.83,27.5 349.08,27.75 349.25,28.25L349.25,31.5L349,32.5L349,33L348.75,33.25L348.75,34C348.75,34.5 348.83,35 349,35.5C349,36 349.17,36.42 349.5,36.75C349.67,37.25 349.83,37.67 350,38C350.33,38.17 350.67,38.25 351,38.25C351.5,38.25 352,38.17 352.5,38C352.83,37.83 353.17,37.58 353.5,37.25C353.83,36.92 354.17,36.5 354.5,36C354.67,35.5 354.75,34.92 354.75,34.25C354.75,33.92 354.67,33.5 354.5,33C354.5,32.5 354.42,32 354.25,31.5L354.25,31.25C354.08,30.92 354,30.58 354,30.25C354,30.08 353.92,29.83 353.75,29.5L353.75,27.75C353.92,27.42 354,27.08 354,26.75C354.17,26.58 354.33,26.33 354.5,26L354.75,25.75C354.92,25.75 355.08,26.08 355.25,26.75C355.58,27.25 355.83,27.92 356,28.75L356.5,31.25C356.67,32.08 356.75,32.75 356.75,33.25C356.75,34.42 357.08,35.33 357.75,36C358.25,36.83 359,37.25 360,37.25C360.17,37.25 360.5,37.17 361,37C361.33,36.67 361.5,36.33 361.5,36C361.33,35.33 361.08,34.67 360.75,34L359.75,32L359.25,30C358.92,29.5 358.75,29 358.75,28.5C358.75,28.17 358.83,27.75 359,27.25C359.17,26.75 359.33,26.33 359.5,26C359.83,25.5 360.08,25.25 360.25,25.25C360.42,25.08 360.5,25.17 360.5,25.5L360.5,26.5L360.75,26.75C360.75,27.25 360.83,27.83 361,28.5C361.17,29 361.42,29.5 361.75,30C361.92,30.5 362.08,30.92 362.25,31.25L362.25,31.75L363,33.25Z"/>
                </g>
                <g id="path41" transform="matrix(1,0,0,1,128.375,240.458)">
                    <path d="M466.75,45.75C468.08,45.25 470,44.5 472.5,43.5C475.17,42.5 478.17,41.33 481.5,40C485,38.83 488.75,37.5 492.75,36L504.75,31.5C508.75,30 512.58,28.58 516.25,27.25C516.58,27.08 516.83,27 517,27C520.5,25.67 523.58,24.5 526.25,23.5C527.58,23 528.83,22.58 530,22.25C531.33,21.75 532.58,21.33 533.75,21C535.58,20.17 536.67,19.75 537,19.75C537.67,19.42 538.08,19.33 538.25,19.5C538.42,19.67 538.33,20 538,20.5C537.67,21.67 537.33,22.5 537,23C536.67,23.67 536.42,24.08 536.25,24.25C535.92,24.42 534.83,24.83 533,25.5C531,26.33 528.42,27.33 525.25,28.5C523.08,29.33 520.67,30.25 518,31.25C517,31.58 515.92,32 514.75,32.5C510.75,34 506.67,35.5 502.5,37C498.17,38.67 493.92,40.25 489.75,41.75C485.58,43.25 481.83,44.75 478.5,46.25C475,47.58 472,48.75 469.5,49.75C467,50.75 465.33,51.5 464.5,52C464.67,51 464.92,50.08 465.25,49.25C465.42,48.42 465.67,47.67 466,47C466.33,46.33 466.58,45.92 466.75,45.75Z"/>
                </g>
                <g id="path42" transform="matrix(1,0,0,1,128.375,240.458)">
                    <path d="M230.75,35.25C231.58,34.92 232.67,34.5 234,34L234.25,34C234.58,33.83 234.83,33.67 235,33.5C236.33,33 237.75,32.5 239.25,32L244,30.25L245.5,29.75C246.67,29.25 247.92,28.75 249.25,28.25C250.08,28.08 250.92,27.83 251.75,27.5C253.92,26.67 256,25.92 258,25.25C260,24.42 261.83,23.75 263.5,23.25C264.33,22.92 265.08,22.58 265.75,22.25C266.42,22.08 266.92,21.92 267.25,21.75C268.25,21.42 268.83,21.25 269,21.25L269.25,21C269.75,20.83 270,20.83 270,21C270.17,21 270.17,21.25 270,21.75C269.67,22.42 269.42,23 269.25,23.5C268.92,24 268.67,24.25 268.5,24.25C268.5,24.42 267.92,24.67 266.75,25C265.92,25.33 264.83,25.75 263.5,26.25C263.33,26.42 263.08,26.58 262.75,26.75C262.42,26.75 262.17,26.83 262,27C260.5,27.5 258.92,28.08 257.25,28.75L253.25,30.25C252.42,30.58 251.5,30.92 250.5,31.25C248.33,32.08 246.08,32.92 243.75,33.75C241.58,34.58 239.5,35.33 237.5,36C235.5,36.83 233.75,37.58 232.25,38.25C230.75,38.92 229.67,39.42 229,39.75C229.17,38.92 229.33,38.25 229.5,37.75C229.67,37.25 229.92,36.75 230.25,36.25C230.42,35.75 230.58,35.42 230.75,35.25Z"/>
                </g>
                <g id="path43" transform="matrix(1,0,0,1,128.375,240.458)">
                    <path d="M461.78,13.94L466.65,11.99L466.98,11.99C469.14,11.12 471.53,10.26 474.13,9.39C476.73,8.31 479.44,7.33 482.25,6.46C484.2,5.81 486.04,5.16 487.78,4.51C488.64,4.3 489.4,3.97 490.05,3.54C491.14,3.1 492.22,2.78 493.3,2.56C494.39,2.13 495.36,1.8 496.23,1.59C497.96,0.94 498.94,0.5 499.15,0.29C499.8,0.07 500.24,0.07 500.45,0.29C500.67,0.29 500.56,0.61 500.13,1.26C499.7,2.13 499.37,2.89 499.15,3.54C498.94,3.97 498.72,4.3 498.5,4.51C498.29,4.73 497.31,5.16 495.58,5.81C495.36,5.81 495.15,5.92 494.93,6.14C493.41,6.79 491.46,7.44 489.08,8.09C486.48,9.17 483.66,10.26 480.63,11.34C477.59,12.42 474.67,13.51 471.85,14.59C471.63,14.59 471.53,14.7 471.53,14.91C468.93,15.78 466.54,16.65 464.38,17.51C462.21,18.38 460.58,19.14 459.5,19.79C459.72,18.71 460.04,17.84 460.48,17.19C460.69,16.32 460.91,15.67 461.13,15.24C461.34,14.59 461.56,14.16 461.78,13.94Z"/>
                </g>
                <g id="path44" transform="matrix(1,0,0,1,128.375,240.458)">
                    <path d="M483.75,68C483.75,68.5 483.67,69.17 483.5,70L483,72C482.67,72.83 482.25,73.5 481.75,74C481.25,74.5 480.67,74.75 480,74.75C479.33,74.75 478.83,74.58 478.5,74.25C478,73.92 477.58,73.58 477.25,73.25C476.92,72.75 476.67,72.33 476.5,72C476.33,71.5 476.17,71.17 476,71C476,71.17 475.92,71.58 475.75,72.25L474.75,73.75C474.42,74.25 474,74.75 473.5,75.25C472.83,75.58 472.08,75.75 471.25,75.75C470.42,75.75 469.67,75.33 469,74.5C468.17,73.5 467.75,72.08 467.75,70.25L467.75,65.75L467.25,65.75C467.08,65.58 466.92,65.5 466.75,65.5C466.58,65.33 466.5,65.08 466.5,64.75C466.5,64.25 466.58,63.75 466.75,63.25C467.08,62.75 467.42,62.33 467.75,62L468.5,61.25C468.83,61.08 469.08,61 469.25,61C469.58,61 469.75,61.17 469.75,61.5C469.92,62 470,62.67 470,63.5C470,64.17 469.92,64.67 469.75,65L469.75,65.75C469.58,66.08 469.5,66.33 469.5,66.5L469.5,68.75L470,70.25C470.17,70.58 470.42,70.92 470.75,71.25C471.08,71.58 471.42,71.75 471.75,71.75C472.25,71.75 472.67,71.67 473,71.5C473.5,71.17 473.92,70.83 474.25,70.5C474.58,70.17 474.83,69.75 475,69.25C475.17,68.75 475.25,68.25 475.25,67.75L475.25,66.25C475.08,65.75 474.92,65.17 474.75,64.5C474.75,64.17 474.67,63.92 474.5,63.75L474.5,63C474.33,62.5 474.25,62.08 474.25,61.75C474.25,61.58 474.33,61.33 474.5,61C474.5,60.83 474.58,60.58 474.75,60.25C474.92,59.92 475.08,59.67 475.25,59.5C475.25,59.33 475.33,59.25 475.5,59.25C475.67,59.25 475.83,59.5 476,60C476.17,60.67 476.42,61.42 476.75,62.25L477.25,64.75L477.25,66.5C477.25,67.67 477.58,68.67 478.25,69.5C478.92,70.33 479.67,70.75 480.5,70.75C480.83,70.75 481.17,70.58 481.5,70.25C481.83,70.08 482.08,69.75 482.25,69.25C481.92,68.75 481.58,68.17 481.25,67.5C480.92,66.83 480.67,66.17 480.5,65.5C480.17,64.83 479.92,64.17 479.75,63.5C479.58,62.83 479.5,62.33 479.5,62C479.5,61.5 479.58,61 479.75,60.5C479.75,60.17 479.92,59.75 480.25,59.25L481,58.5L481.25,59L481.25,60C481.42,60.67 481.58,61.25 481.75,61.75C481.92,62.25 482.08,62.83 482.25,63.5C482.42,64 482.67,64.5 483,65L483,65.25L483.5,66.75C483.67,67.25 483.75,67.67 483.75,68Z"/>
                </g>
                <g id="path45" transform="matrix(1,0,0,1,128.375,240.458)">
                    <path d="M128,55.25C127.83,55.25 127.83,55.08 128,54.75L131,48.25C131.33,47.92 131.58,47.75 131.75,47.75C131.92,47.75 132.17,47.83 132.5,48L134,49C134.17,49 134.25,49.08 134.25,49.25C134.75,49.58 135.33,49.92 136,50.25C136.5,50.58 136.92,50.92 137.25,51.25C137.42,51.25 137.58,51.33 137.75,51.5C138.25,51.83 138.67,52.17 139,52.5C139.5,52.83 139.75,53.08 139.75,53.25C139.75,53.42 139.58,53.83 139.25,54.5C139.08,55 138.83,55.58 138.5,56.25C138.17,57.08 137.75,57.83 137.25,58.5C136.92,59.17 136.67,59.75 136.5,60.25C136.17,60.58 135.83,60.67 135.5,60.5L135.25,60.25C134.92,60.08 134.58,59.83 134.25,59.5C134.08,59.33 133.92,59.25 133.75,59.25C133.08,58.75 132.42,58.33 131.75,58C130.92,57.33 130.17,56.75 129.5,56.25C129,55.92 128.58,55.67 128.25,55.5L128,55.25Z"/>
                </g>
                <g id="path46" transform="matrix(1,0,0,1,128.375,240.458)">
                    <path d="M477.75,113.75C477.58,113.75 477.58,113.58 477.75,113.25L481,106.75C481.17,106.42 481.33,106.25 481.5,106.25C481.67,106.25 482,106.42 482.5,106.75L484,107.5L484.5,108C484.83,108.17 485.25,108.42 485.75,108.75L487.25,109.75L487.5,110C488.17,110.5 488.67,110.92 489,111.25L489.5,111.75C489.5,111.92 489.42,112.33 489.25,113C488.92,113.5 488.58,114.17 488.25,115L487.25,117C486.92,117.67 486.58,118.25 486.25,118.75C485.92,119.08 485.67,119.17 485.5,119C485.33,119 485.17,118.92 485,118.75C484.83,118.58 484.5,118.33 484,118C483.83,118 483.75,117.92 483.75,117.75C483.08,117.42 482.42,117 481.75,116.5C480.92,115.83 480.08,115.25 479.25,114.75C478.75,114.42 478.33,114.17 478,114L477.75,113.75Z"/>
                </g>
                <g id="path47" transform="matrix(1,0,0,1,128.375,240.458)">
                    <path d="M503.5,51.75L506,46.75C506.17,46.42 506.33,46.25 506.5,46.25C506.67,46.25 506.92,46.33 507.25,46.5L508.75,47.5C509.42,47.83 510.08,48.25 510.75,48.75C510.92,48.75 511,48.83 511,49L514,51C514.33,51.33 514.5,51.58 514.5,51.75C514.5,51.92 514.33,52.25 514,52.75C513.83,53.42 513.58,54.08 513.25,54.75C512.92,55.42 512.5,56.17 512,57L511.25,58.5C510.92,59 510.58,59.17 510.25,59C510.08,58.83 509.67,58.5 509,58C508.67,57.83 508.42,57.58 508.25,57.25C507.75,57.08 507.33,56.83 507,56.5C506.17,56 505.42,55.5 504.75,55C504.25,54.67 503.83,54.42 503.5,54.25C503.33,54.08 503.17,54 503,54L503,54.25L502.5,55.25C502.33,55.42 502.25,55.58 502.25,55.75L501.75,56.75C501.58,56.92 501.5,57.08 501.5,57.25C501.33,57.58 501.17,57.83 501,58C500.83,58.5 500.58,58.83 500.25,59C500.08,59.5 499.83,59.67 499.5,59.5L499.25,59.25C498.92,59.08 498.5,58.83 498,58.5C497.33,58 496.58,57.42 495.75,56.75L494.25,55.75C493.92,55.58 493.67,55.42 493.5,55.25C493.33,55.08 493.17,55 493,55C492.5,54.67 492.17,54.42 492,54.25C491.83,54.08 491.83,53.92 492,53.75L495,47.25C495.33,46.92 495.58,46.75 495.75,46.75C495.92,46.75 496.33,46.92 497,47.25C497.67,47.75 498.42,48.25 499.25,48.75C500.08,49.25 500.92,49.83 501.75,50.5C502.58,51 503.17,51.42 503.5,51.75Z"/>
                </g>
                <g id="path48" transform="matrix(1,0,0,1,128.375,240.458)">
                    <path d="M532,50.25L534.5,45C534.83,44.67 535.08,44.5 535.25,44.5L536,44.75L537.5,45.75C538.17,46.08 538.83,46.5 539.5,47L539.75,47.25L541.25,48.25C541.75,48.75 542.17,49.08 542.5,49.25C543,49.58 543.25,49.83 543.25,50C543.25,50.17 543.08,50.58 542.75,51.25C542.58,51.75 542.33,52.33 542,53L541.75,53.25L540.75,55.25C540.42,55.92 540.08,56.5 539.75,57C539.58,57.33 539.33,57.42 539,57.25C538.83,57.08 538.42,56.75 537.75,56.25C537.42,56.08 537.08,55.83 536.75,55.5L535.75,55C534.92,54.33 534.17,53.75 533.5,53.25C533,52.92 532.58,52.67 532.25,52.5C532.08,52.33 531.92,52.25 531.75,52.25L531.75,52.5L531.25,53.5L531,53.75C530.83,54.25 530.67,54.67 530.5,55C530.33,55.17 530.25,55.33 530.25,55.5L529.75,56.5C529.58,56.83 529.33,57.17 529,57.5C528.83,57.83 528.58,57.92 528.25,57.75C528.08,57.58 527.58,57.25 526.75,56.75C526.42,56.42 526,56.08 525.5,55.75L524.5,55.25L523,54.25C522.67,54.08 522.42,53.83 522.25,53.5C521.92,53.5 521.67,53.42 521.5,53.25L520.75,52.5C520.58,52.5 520.58,52.33 520.75,52L523.75,45.5C523.92,45.17 524.17,45 524.5,45L525.75,45.75C526.42,46.08 527.17,46.58 528,47.25L530.5,48.75L532,50.25Z"/>
                </g>
                <g id="path49" transform="matrix(1,0,0,1,128.375,240.458)">
                    <path d="M249.5,71.5L249.5,71L252.75,64.5C252.92,64.17 253.17,64 253.5,64L254.25,64.25C254.58,64.58 255.08,64.92 255.75,65.25C255.92,65.42 256.08,65.5 256.25,65.5C256.58,65.83 257,66.17 257.5,66.5L259,67.5C259.17,67.5 259.33,67.58 259.5,67.75C260,68.08 260.42,68.42 260.75,68.75C261.08,69.08 261.25,69.33 261.25,69.5C261.25,69.67 261.17,70.08 261,70.75C260.67,71.25 260.33,71.83 260,72.5C259.67,73.33 259.33,74.08 259,74.75C258.67,75.42 258.33,76 258,76.5C257.83,76.83 257.58,76.92 257.25,76.75C257.08,76.75 256.92,76.67 256.75,76.5C256.58,76.33 256.25,76.08 255.75,75.75L255.5,75.5C254.83,75 254.17,74.58 253.5,74.25C252.67,73.58 251.83,73 251,72.5C250.5,72.17 250.08,71.92 249.75,71.75C249.75,71.58 249.67,71.5 249.5,71.5Z"/>
                </g>
                <path id="path0" d="M200.375,329.458L200.375,329.708C202.045,329.708 203.705,329.288 205.375,328.458C207.205,327.788 209.125,326.458 211.125,324.458C211.625,323.958 211.875,323.628 211.875,323.458L211.875,322.708C210.875,320.038 209.205,317.538 206.875,315.208C204.705,312.708 201.955,310.128 198.625,307.458C195.295,304.958 191.545,302.128 187.375,298.958C183.205,295.788 178.705,292.208 173.875,288.208C173.705,288.038 173.625,287.628 173.625,286.958C173.455,286.288 173.455,285.458 173.625,284.458C173.795,283.458 173.955,282.378 174.125,281.208C174.295,280.038 174.545,278.878 174.875,277.708C175.205,276.708 175.545,275.788 175.875,274.958C176.375,274.128 176.795,273.538 177.125,273.208C178.455,271.878 180.375,270.458 182.875,268.958C185.375,267.458 188.205,265.788 191.375,263.958C194.545,262.288 197.955,260.538 201.625,258.708C205.295,256.878 209.045,255.128 212.875,253.458C216.545,251.628 220.295,249.958 224.125,248.458C227.795,246.958 231.205,245.708 234.375,244.708C237.705,243.538 240.625,242.628 243.125,241.958C245.795,241.288 247.875,240.958 249.375,240.958C251.045,240.958 252.205,241.288 252.875,241.958C253.545,242.628 253.875,243.878 253.875,245.708C253.875,247.038 253.625,248.378 253.125,249.708C252.625,251.208 252.045,252.628 251.375,253.958L248.875,257.458C248.205,258.458 247.545,259.378 246.875,260.208C246.545,260.708 245.875,261.458 244.875,262.458L241.875,265.958C240.705,267.288 239.625,268.628 238.625,269.958C237.625,271.288 236.795,272.628 236.125,273.958C235.455,275.288 235.045,275.958 234.875,275.958C234.705,275.958 234.795,275.038 235.125,273.208C235.295,272.708 235.625,271.958 236.125,270.958C236.455,269.958 236.875,268.958 237.375,267.958C238.045,266.958 238.625,266.038 239.125,265.208C239.625,264.378 239.955,263.788 240.125,263.458C240.455,263.288 240.705,263.038 240.875,262.708C241.375,262.208 241.955,261.538 242.625,260.708L243.125,260.208L245.625,257.208C246.625,256.038 247.455,254.958 248.125,253.958C248.955,252.958 249.455,252.208 249.625,251.708C249.795,251.538 249.795,251.288 249.625,250.958C249.625,250.788 249.455,250.538 249.125,250.208C248.795,250.038 248.375,249.878 247.875,249.708L245.375,249.708C244.205,249.708 242.545,249.958 240.375,250.458C238.045,251.128 235.455,251.958 232.625,252.958C229.625,254.128 226.375,255.378 222.875,256.708C219.545,258.208 216.045,259.788 212.375,261.458C208.705,263.128 205.125,264.878 201.625,266.708C197.955,268.378 194.545,270.128 191.375,271.958C188.205,273.628 185.375,275.288 182.875,276.958C180.205,278.458 178.125,279.878 176.625,281.208C176.295,281.378 176.125,281.538 176.125,281.708C176.295,281.878 176.545,282.038 176.875,282.208C181.205,284.208 185.705,286.538 190.375,289.208C192.375,290.378 194.455,291.628 196.625,292.958C198.955,294.288 201.375,295.788 203.875,297.458C206.205,299.128 208.625,300.788 211.125,302.458C213.625,304.288 216.125,306.208 218.625,308.208C218.795,308.378 218.875,308.538 218.875,308.708C220.375,309.878 221.875,311.128 223.375,312.458C225.045,313.788 226.795,315.038 228.625,316.208C230.455,317.378 232.295,318.288 234.125,318.958C236.125,319.628 238.125,319.958 240.125,319.958L243.875,319.958C244.875,319.788 245.955,319.538 247.125,319.208C248.295,318.878 249.455,318.458 250.625,317.958C251.625,317.288 252.705,316.538 253.875,315.708C254.875,315.038 255.705,314.288 256.375,313.458C257.205,312.628 257.875,311.878 258.375,311.208C259.045,310.538 259.545,309.878 259.875,309.208C260.375,308.708 260.795,308.208 261.125,307.708C261.795,307.038 262.295,306.878 262.625,307.208C262.955,307.538 262.955,308.208 262.625,309.208C262.295,310.378 262.125,311.538 262.125,312.708C262.125,313.878 262.375,314.878 262.875,315.708C263.375,316.538 264.205,317.208 265.375,317.708C266.375,318.378 267.795,318.708 269.625,318.708C270.955,318.708 272.375,318.538 273.875,318.208C275.375,317.878 276.875,317.378 278.375,316.708C279.875,316.038 281.295,315.208 282.625,314.208C283.795,313.208 284.795,312.038 285.625,310.708C287.125,307.878 288.205,305.628 288.875,303.958C289.375,302.128 290.045,301.208 290.875,301.208C291.205,300.538 291.795,299.708 292.625,298.708C293.295,297.538 294.205,296.458 295.375,295.458C296.375,294.288 297.545,293.378 298.875,292.708C300.045,291.878 301.375,291.458 302.875,291.458C304.545,291.458 305.875,291.958 306.875,292.958C308.045,294.128 308.955,295.458 309.625,296.958C310.295,298.458 310.705,300.128 310.875,301.958C311.205,303.628 311.375,305.038 311.375,306.208C311.375,307.878 311.205,309.458 310.875,310.958C310.705,312.458 310.375,313.788 309.875,314.958C309.375,315.958 308.875,316.788 308.375,317.458C307.705,318.128 307.125,318.458 306.625,318.458C303.295,318.458 300.045,317.708 296.875,316.208C293.705,314.708 290.955,313.128 288.625,311.458C287.625,313.788 286.545,315.958 285.375,317.958C284.045,320.128 282.545,321.958 280.875,323.458C279.205,324.958 277.455,326.128 275.625,326.958C273.625,327.958 271.625,328.458 269.625,328.458C268.625,328.458 267.455,328.288 266.125,327.958C264.955,327.628 263.795,327.038 262.625,326.208C261.625,325.538 260.705,324.538 259.875,323.208C259.045,321.878 258.455,320.128 258.125,317.958C257.955,318.288 257.625,318.878 257.125,319.708C256.625,320.378 256.045,321.128 255.375,321.958L252.625,324.708C251.625,325.538 250.455,326.378 249.125,327.208C247.795,328.038 246.375,328.708 244.875,329.208C243.375,329.708 241.795,329.958 240.125,329.958C238.125,329.958 236.295,329.708 234.625,329.208C233.125,328.708 231.705,328.128 230.375,327.458C229.045,326.628 227.705,325.708 226.375,324.708C225.205,323.538 223.955,322.378 222.625,321.208C221.295,320.038 219.875,318.788 218.375,317.458C216.705,316.128 214.875,314.788 212.875,313.458L211.875,312.708L212.375,314.208C212.875,315.208 213.375,316.378 213.875,317.708C214.205,319.038 214.375,320.288 214.375,321.458C214.375,324.288 213.955,326.788 213.125,328.958C212.125,331.128 210.875,332.958 209.375,334.458C208.045,336.128 206.545,337.378 204.875,338.208C203.235,339.028 201.755,339.448 200.435,339.458C200.565,340.038 200.625,340.628 200.625,341.208C200.795,341.708 200.955,342.288 201.125,342.958L201.125,344.958C201.125,345.788 201.045,346.878 200.875,348.208C200.705,349.378 200.375,350.458 199.875,351.458C199.545,352.288 199.205,352.788 198.875,352.958C198.375,353.128 197.455,352.788 196.125,351.958C193.795,350.788 192.045,349.538 190.875,348.208C189.705,346.708 188.795,345.288 188.125,343.958C187.455,342.458 186.955,340.958 186.625,339.458L186.125,334.958C185.955,333.958 185.455,333.208 184.625,332.708C183.625,332.378 182.545,332.208 181.375,332.208L179.375,332.208C174.705,332.208 170.955,333.708 168.125,336.708C165.125,340.208 162.295,343.288 159.625,345.958C157.125,348.628 154.625,350.788 152.125,352.458C149.625,354.128 147.045,354.958 144.375,354.958C142.875,354.958 141.375,354.538 139.875,353.708C138.375,353.038 137.045,352.038 135.875,350.708C134.705,349.378 133.795,347.708 133.125,345.708C132.455,343.878 132.125,341.788 132.125,339.458C132.125,337.128 132.375,334.708 132.875,332.208C133.545,329.878 134.295,327.628 135.125,325.458C135.955,323.458 136.795,321.628 137.625,319.958C138.295,318.288 138.955,316.958 139.625,315.958C140.125,314.958 140.545,314.458 140.875,314.458C141.205,314.628 141.125,315.208 140.625,316.208C140.295,317.378 139.795,318.878 139.125,320.708C138.455,322.378 137.795,324.288 137.125,326.458C136.295,328.458 135.705,330.538 135.375,332.708C134.875,334.878 134.625,336.878 134.625,338.708C134.625,341.208 135.205,343.288 136.375,344.958C137.545,346.628 139.295,347.458 141.625,347.458C144.295,347.458 146.955,346.538 149.625,344.708C152.125,342.878 154.705,340.708 157.375,338.208C159.875,335.538 162.455,332.708 165.125,329.708C167.795,327.038 170.165,325.338 172.255,324.588C174.335,323.838 176.205,323.338 177.875,323.088C179.545,322.838 180.955,322.708 182.125,322.708C182.955,322.708 183.705,322.788 184.375,322.958C185.205,323.128 185.875,323.288 186.375,323.458L187.875,323.958C187.875,322.628 188.045,321.958 188.375,321.958C188.705,322.128 189.375,322.538 190.375,323.208C191.045,323.708 191.705,324.288 192.375,324.958L194.625,327.208C195.455,327.708 196.375,328.208 197.375,328.708C198.205,329.208 199.205,329.458 200.375,329.458ZM198.125,344.208C198.125,343.538 197.875,342.788 197.375,341.958C197.045,341.288 196.545,340.538 195.875,339.708C195.205,339.038 194.455,338.458 193.625,337.958C192.955,337.288 192.205,336.878 191.375,336.708C191.375,337.538 191.625,338.378 192.125,339.208C192.625,340.038 193.205,340.878 193.875,341.708C194.545,342.378 195.295,342.958 196.125,343.458C196.795,343.958 197.455,344.208 198.125,344.208ZM305.125,306.458C304.795,304.958 304.045,303.708 302.875,302.708C301.705,301.538 300.545,300.958 299.375,300.958C297.375,300.958 295.955,301.378 295.125,302.208C294.455,302.878 294.125,303.378 294.125,303.708C295.295,304.708 296.625,305.538 298.125,306.208C299.625,307.038 301.455,307.788 303.625,308.458C304.455,308.628 305.045,308.628 305.375,308.458C305.545,308.128 305.455,307.458 305.125,306.458Z"/>
                <path id="path6" d="M342.125,303.208C342.125,307.038 341.705,310.378 340.875,313.208C340.045,316.038 338.625,318.628 336.625,320.958C334.955,322.788 332.955,324.628 330.625,326.458C328.125,328.288 325.545,330.128 322.875,331.958C320.205,333.628 317.455,335.288 314.625,336.958C311.955,338.458 309.455,339.788 307.125,340.958C304.795,342.128 302.875,343.038 301.375,343.708C299.875,344.378 298.955,344.708 298.625,344.708C298.455,344.708 297.625,344.878 296.125,345.208C295.795,345.208 295.455,345.288 295.125,345.458C293.955,345.788 292.625,346.128 291.125,346.458C289.795,346.788 288.375,347.128 286.875,347.458L284.375,347.958L278.375,349.458C278.045,349.458 277.705,349.538 277.375,349.708C275.045,350.208 272.875,350.708 270.875,351.208C268.875,351.538 267.375,351.878 266.375,352.208C262.875,352.708 261.125,352.788 261.125,352.458C261.125,352.458 261.545,352.208 262.375,351.708C263.205,351.208 264.545,350.538 266.375,349.708C269.875,348.038 273.545,346.458 277.375,344.958C281.045,343.458 284.795,341.878 288.625,340.208C292.455,338.538 296.375,336.788 300.375,334.958C304.375,333.288 308.295,331.378 312.125,329.208C317.455,326.378 321.875,323.788 325.375,321.458C328.875,319.288 331.625,317.378 333.625,315.708C335.795,314.208 337.205,312.958 337.875,311.958C338.705,310.788 339.125,310.038 339.125,309.708L338.125,308.208C337.795,307.708 337.295,307.208 336.625,306.708C335.955,306.378 335.045,306.128 333.875,305.958C332.705,305.788 331.125,305.708 329.125,305.708C327.625,305.708 326.205,305.628 324.875,305.458C323.545,305.288 322.295,304.878 321.125,304.208C320.125,303.708 319.295,302.958 318.625,301.958C317.955,300.788 317.625,299.458 317.625,297.958C317.625,295.788 317.955,293.788 318.625,291.958C319.455,290.128 320.455,288.538 321.625,287.208C322.625,285.878 323.795,284.788 325.125,283.958C326.625,283.288 327.955,282.958 329.125,282.958C330.955,282.958 332.705,283.708 334.375,285.208C335.875,286.708 337.205,288.458 338.375,290.458C339.545,292.628 340.455,294.878 341.125,297.208C341.795,299.538 342.125,301.538 342.125,303.208ZM333.125,296.208C332.295,295.038 331.295,293.958 330.125,292.958C329.125,292.128 328.045,291.708 326.875,291.708C325.545,291.708 324.455,291.878 323.625,292.208C322.955,292.708 322.625,293.288 322.625,293.958C322.625,294.958 323.545,295.788 325.375,296.458C327.205,296.958 329.795,296.878 333.125,296.208Z"/>
                <path id="path1" d="M368.625,346.458C367.125,346.958 365.455,347.208 363.625,347.208C362.295,347.208 360.875,347.038 359.375,346.708C358.045,346.538 356.795,345.958 355.625,344.958C354.295,344.128 353.125,342.788 352.125,340.958C351.125,339.128 350.375,336.708 349.875,333.708C349.705,332.378 349.545,330.708 349.375,328.708C349.205,326.538 349.045,324.128 348.875,321.458C348.705,318.788 348.625,315.878 348.625,312.708C348.455,311.208 348.375,309.708 348.375,308.208C348.375,306.538 348.295,304.878 348.125,303.208C348.125,299.878 348.045,296.538 347.875,293.208C347.875,290.038 347.795,286.958 347.625,283.958C347.455,280.958 347.295,278.208 347.125,275.708C346.955,273.208 346.795,271.128 346.625,269.458C346.455,266.628 346.125,264.038 345.625,261.708C345.295,259.538 344.875,257.628 344.375,255.958C344.045,254.458 343.705,253.208 343.375,252.208L343.375,251.958C343.045,251.128 342.875,250.628 342.875,250.458C342.875,250.128 342.955,249.628 343.125,248.958C343.295,248.128 343.455,247.378 343.625,246.708C343.955,245.878 344.205,245.208 344.375,244.708C344.545,244.378 344.625,244.128 344.625,243.958L344.875,243.458C345.205,242.628 345.455,242.208 345.625,242.208C345.795,242.208 346.045,242.538 346.375,243.208L347.375,245.208L348.625,248.958C348.955,250.628 349.375,252.628 349.875,254.958C350.375,257.458 350.795,260.378 351.125,263.708C351.295,265.878 351.455,268.288 351.625,270.958C351.795,273.788 351.955,276.788 352.125,279.958C352.295,283.128 352.375,286.378 352.375,289.708C352.545,292.708 352.625,295.628 352.625,298.458L352.875,299.708C352.875,303.038 352.955,306.208 353.125,309.208L353.125,311.208C353.125,313.538 353.205,315.628 353.375,317.458L353.375,318.708C353.375,320.538 353.455,322.208 353.625,323.708C353.625,325.378 353.705,326.628 353.875,327.458C354.375,329.958 355.045,331.958 355.875,333.458C356.545,334.788 357.375,335.708 358.375,336.208C359.375,336.878 360.295,337.208 361.125,337.208C362.125,337.378 362.955,337.458 363.625,337.458C366.295,337.458 368.625,337.128 370.625,336.458C372.625,335.788 374.455,334.878 376.125,333.708C377.795,332.538 379.455,331.128 381.125,329.458L384.125,326.458C384.625,325.788 385.205,325.128 385.875,324.458C386.205,324.128 386.625,323.878 387.125,323.708L387.875,323.708C388.205,323.878 388.455,324.038 388.625,324.208C388.625,324.538 388.545,324.958 388.375,325.458C388.375,325.788 388.295,326.288 388.125,326.958C388.125,327.628 388.205,328.288 388.375,328.958C388.375,329.628 388.545,330.288 388.875,330.958C389.045,331.788 389.375,332.458 389.875,332.958C390.375,333.458 390.955,333.958 391.625,334.458C392.295,334.788 393.125,334.958 394.125,334.958C395.295,334.958 396.625,334.788 398.125,334.458C399.795,334.128 401.375,333.628 402.875,332.958C404.375,332.288 405.705,331.458 406.875,330.458C408.205,329.458 409.295,328.288 410.125,326.958C411.625,324.128 412.625,321.878 413.125,320.208C413.795,318.538 414.545,317.628 415.375,317.458C415.705,316.788 416.205,315.958 416.875,314.958C417.705,313.788 418.625,312.708 419.625,311.708C420.795,310.538 422.045,309.628 423.375,308.958C424.545,308.128 425.795,307.708 427.125,307.708C428.955,307.708 430.375,308.288 431.375,309.458C432.545,310.458 433.455,311.708 434.125,313.208C434.795,314.708 435.205,316.378 435.375,318.208C435.705,319.878 435.875,321.288 435.875,322.458C435.875,324.288 435.705,325.878 435.375,327.208C435.045,328.708 434.705,330.038 434.375,331.208C433.875,332.208 433.295,333.038 432.625,333.708C432.125,334.378 431.625,334.708 431.125,334.708C427.625,334.708 424.295,333.958 421.125,332.458C417.955,330.958 415.295,329.378 413.125,327.708C412.125,330.038 410.955,332.288 409.625,334.458C408.455,336.458 407.045,338.208 405.375,339.708C403.705,341.208 401.875,342.378 399.875,343.208C398.045,344.208 396.125,344.708 394.125,344.708C392.955,344.708 391.875,344.538 390.875,344.208C389.875,343.878 388.955,343.288 388.125,342.458C387.295,341.628 386.545,340.628 385.875,339.458C385.375,338.128 385.125,336.458 385.125,334.458C385.125,334.288 385.045,334.208 384.875,334.208C384.705,334.038 384.545,334.038 384.375,334.208C384.045,334.208 383.795,334.288 383.625,334.458L383.125,334.958C382.795,335.288 382.295,335.878 381.625,336.708C381.125,337.378 380.455,338.128 379.625,338.958C378.795,339.958 377.795,340.878 376.625,341.708C375.625,342.708 374.455,343.628 373.125,344.458C371.795,345.288 370.295,345.958 368.625,346.458ZM429.625,322.708C429.125,321.208 428.375,319.958 427.375,318.958C426.205,317.788 424.955,317.208 423.625,317.208C421.795,317.208 420.455,317.628 419.625,318.458C418.955,319.128 418.625,319.628 418.625,319.958C419.795,320.958 421.125,321.788 422.625,322.458C424.125,323.288 425.875,324.038 427.875,324.708C428.875,324.878 429.545,324.878 429.875,324.708C430.045,324.378 429.955,323.708 429.625,322.708Z"/>
                <g id="path54" transform="matrix(1,0,0,1,128.375,240.458)">
                    <path d="M386,76.5C385.33,74.83 384.83,73.25 384.5,71.75C384,70.25 383.67,68.92 383.5,67.75C383.17,66.42 382.92,65.33 382.75,64.5C382.58,63.5 382.5,62.83 382.5,62.5C382.33,61.83 382.25,61.25 382.25,60.75C382.25,60.25 382.17,59.75 382,59.25C381.83,58.92 381.67,58.5 381.5,58C381.33,57.5 381.08,57 380.75,56.5C380.92,56.17 381,55.83 381,55.5L381.5,54.25L382,52.5C382,52.33 382.08,52.17 382.25,52C382.42,51.33 382.58,50.75 382.75,50.25C383.08,49.58 383.42,49.25 383.75,49.25C383.92,49.08 384.33,49.42 385,50.25C385.33,50.75 385.75,51.42 386.25,52.25C386.75,52.92 387.25,53.67 387.75,54.5L388.25,55C388.92,56 389.5,57 390,58C390.67,58.83 391.17,59.5 391.5,60C391.83,60.67 392.08,61.25 392.25,61.75C392.58,62.25 392.67,62.58 392.5,62.75C392.33,63.08 391.92,63.08 391.25,62.75C390.75,62.58 389.83,62.08 388.5,61.25L388.25,61.25C388.08,61.42 388.08,61.58 388.25,61.75C388.42,62.42 388.67,63.5 389,65L389.25,65.25C389.75,66.92 390.33,68.67 391,70.5C391.33,71.33 391.67,72.25 392,73.25C392.17,73.75 392.33,74.17 392.5,74.5C393,76 393.42,77.5 393.75,79C394.25,80.5 394.67,82.08 395,83.75C395.17,85.42 395.25,87.08 395.25,88.75L395.25,91.25C395.25,92.25 395.08,93.42 394.75,94.75C394.58,96.08 394.25,97.42 393.75,98.75C393.25,99.92 392.58,101.08 391.75,102.25C390.75,103.25 389.67,104.08 388.5,104.75C387.17,105.42 385.58,105.75 383.75,105.75C381.92,105.75 380.25,105.5 378.75,105C377.25,104.5 376,103.75 375,102.75C373.83,101.75 372.83,100.58 372,99.25C371.33,98.08 370.67,96.83 370,95.5C369.33,94.17 368.83,92.83 368.5,91.5C368.17,90.17 367.83,88.92 367.5,87.75C367.17,89.92 366.67,92.25 366,94.75C365.17,97.08 364,99.25 362.5,101.25C361,103.25 359.25,104.83 357.25,106C355.08,107.33 352.58,108 349.75,108C347.58,108 345.75,107.58 344.25,106.75C342.58,106.08 341.25,105.08 340.25,103.75C339.25,102.58 338.42,101.25 337.75,99.75C337.25,98.42 336.83,97 336.5,95.5C336.33,94.17 336.17,92.92 336,91.75L336,89C336,87.5 336.08,86 336.25,84.5C336.25,83 336.42,81.58 336.75,80.25C336.92,78.92 337.08,77.67 337.25,76.5C337.42,75.33 337.67,74.42 338,73.75C338.5,72.08 338.58,71.17 338.25,71C338.08,70.83 337.58,71.42 336.75,72.75C335.92,74.08 335.17,75.83 334.5,78C333.83,80.17 333.25,82.5 332.75,85C332.08,87.33 331.5,89.75 331,92.25C330.5,94.92 329.83,97.17 329,99C328.67,100.33 328.25,101.42 327.75,102.25C327.08,103.25 326.5,104 326,104.5C325.33,105.17 324.75,105.58 324.25,105.75C323.75,106.08 323.33,106.25 323,106.25C321,106.25 319.33,105.58 318,104.25C316.67,102.92 315.5,101.25 314.5,99.25C313.67,97.25 313.08,95 312.75,92.5C312.42,90.17 312.25,87.83 312.25,85.5C312.25,83 312.42,80.75 312.75,78.75C313.08,76.75 313.5,74.83 314,73C314.5,71 314.92,70.08 315.25,70.25C315.58,70.42 315.58,71.42 315.25,73.25C315.08,73.92 314.92,74.67 314.75,75.5C314.75,76.33 314.67,77.17 314.5,78C314.5,78.83 314.42,79.67 314.25,80.5L314.25,82.5C314.25,84.5 314.33,86.5 314.5,88.5C314.67,90.5 315,92.25 315.5,93.75C316,95.42 316.67,96.75 317.5,97.75C318.5,98.58 319.75,99 321.25,99C322.25,99 323.17,98.67 324,98C324.83,97.17 325.5,96.08 326,94.75C326.67,93.25 327.25,91.67 327.75,90C328.25,88.17 328.67,86.17 329,84C329.5,82 330.08,79.92 330.75,77.75C331.25,75.58 331.83,73.5 332.5,71.5C333,70 333.58,68.58 334.25,67.25C334.92,65.75 335.67,64.42 336.5,63.25C337.33,62.08 338.08,61.17 338.75,60.5C339.58,59.67 340.33,59.25 341,59.25C341.67,59.25 342.17,59.75 342.5,60.75C342.67,61.58 342.67,62.75 342.5,64.25C342.33,65.75 342.08,67.42 341.75,69.25C341.75,69.92 341.67,70.58 341.5,71.25C341.33,72.42 341.08,73.58 340.75,74.75C340.42,76.75 340.17,78.58 340,80.25C339.67,82.08 339.5,83.67 339.5,85C339.5,89.17 340.33,92.42 342,94.75C343.83,97.08 346.25,98.25 349.25,98.25C352.42,98.25 355,97.75 357,96.75C359.17,95.75 360.83,94.5 362,93C363.17,91.5 364,89.83 364.5,88C365,86.17 365.25,84.42 365.25,82.75C365.25,79.42 365.08,76.42 364.75,73.75C364.25,71.25 363.75,69.08 363.25,67.25C362.75,65.42 362.33,64 362,63L361.5,61.25C361.5,60.92 361.58,60.33 361.75,59.5C361.92,58.67 362.08,57.75 362.25,56.75C362.42,56.42 362.58,56 362.75,55.5C362.75,55 362.83,54.5 363,54C363.33,53.17 363.58,52.5 363.75,52C364.08,51.17 364.33,50.75 364.5,50.75C364.67,50.75 365,51.33 365.5,52.5C366.5,54.67 367.33,56.83 368,59C368.67,61.33 369.17,63.58 369.5,65.75L370.5,72.25C370.67,74.42 371,76.58 371.5,78.75C371.83,80.75 372.33,82.75 373,84.75C373.5,86.75 374.33,88.58 375.5,90.25C376.33,91.92 377.58,93.25 379.25,94.25C380.92,95.25 382.92,95.75 385.25,95.75C386.25,95.75 387.17,95.58 388,95.25C388.83,95.08 389.5,94.75 390,94.25C390.67,93.92 391.17,93.5 391.5,93C391.83,92.5 392.08,92.08 392.25,91.75C392.25,91.08 392.08,90.25 391.75,89.25L390,85.75C389.33,84.58 388.67,83.33 388,82L388,81.5C387.17,80 386.5,78.33 386,76.5Z"/>
                </g>
                <g id="path55" transform="matrix(1,0,0,1,128.375,240.458)">
                    <path d="M401.75,17.15L401.75,14.26C401.75,13.46 401.67,12.81 401.5,12.33C401.33,11.85 401.17,11.45 401,11.13C401,10.97 400.92,10.81 400.75,10.65C400.75,10.32 400.67,10 400.5,9.68C400.5,9.52 400.58,9.04 400.75,8.24L401.75,5.83C402.08,4.86 402.33,4.06 402.5,3.42C402.67,2.93 402.83,2.53 403,2.21L403,1.97C403.33,1.33 403.58,1.09 403.75,1.25C403.92,1.25 404.17,1.49 404.5,1.97C404.67,2.29 404.92,2.93 405.25,3.9C405.42,4.38 405.67,4.94 406,5.59L406.5,7.03C407,8.16 407.5,9.44 408,10.89L408.5,12.33L409.5,14.74C410,16.03 410.42,17.15 410.75,18.11C410.92,18.76 411.08,19.24 411.25,19.56C411.42,19.72 411.5,19.88 411.5,20.04C412,21.97 412,22.85 411.5,22.69C410.83,22.69 409.58,21.65 407.75,19.56C407.58,19.24 407.42,19.16 407.25,19.32L407.25,22.21C407.42,23.34 407.58,24.78 407.75,26.55C407.75,28.48 407.92,30.64 408.25,33.05C408.42,35.46 408.58,38.03 408.75,40.76C408.92,43.49 409.17,46.31 409.5,49.2L409.5,51.85L410,57.63C410,58.59 410.08,59.48 410.25,60.28C410.42,62.21 410.5,63.97 410.5,65.58C410.83,68.15 411,70.48 411,72.57C411.17,74.34 411.25,75.86 411.25,77.15C411.25,77.47 411.33,77.79 411.5,78.11L411.5,81.24C411.5,84.46 411.33,87.19 411,89.43C410.83,91.68 410.5,93.61 410,95.22C409.67,96.66 409.33,97.79 409,98.59C408.83,98.75 408.75,98.91 408.75,99.07L408,100.52C407.17,102.77 406.58,103.81 406.25,103.65C405.92,103.49 405.92,102.21 406.25,99.8L406.5,96.18C406.67,94.74 406.75,92.97 406.75,90.88C406.75,90.08 406.67,88.79 406.5,87.03C406.5,85.26 406.42,83.17 406.25,80.76C406.08,80.28 406,79.88 406,79.56C405.83,77.47 405.67,75.14 405.5,72.57C405.5,70.48 405.42,68.31 405.25,66.06C405.08,65.26 405,64.38 405,63.41C404.67,60.36 404.42,57.15 404.25,53.77C404.08,50.4 403.83,47.19 403.5,44.14L403.5,42.45C403.17,39.88 403,37.39 403,34.98L402.5,30.88C402.5,29.6 402.42,28.31 402.25,27.03L402,21.01C401.83,19.24 401.75,17.95 401.75,17.15Z"/>
                </g>
                <path id="path2" d="M590.375,337.208C591.205,337.378 592.045,337.458 592.875,337.458C595.545,337.458 597.875,337.128 599.875,336.458C601.875,335.788 603.705,334.878 605.375,333.708C607.045,332.538 608.625,331.208 610.125,329.708L615.125,324.708C615.455,324.378 615.795,324.128 616.125,323.958C616.625,323.788 616.955,323.788 617.125,323.958C617.455,323.958 617.625,324.128 617.625,324.458C617.795,324.788 617.795,325.128 617.625,325.458C617.455,325.958 617.375,326.458 617.375,326.958L617.375,328.958C617.545,329.628 617.705,330.378 617.875,331.208C618.205,331.878 618.625,332.458 619.125,332.958C619.455,333.628 620.045,334.128 620.875,334.458C621.545,334.788 622.375,334.958 623.375,334.958L625.625,334.958C626.455,334.788 627.125,334.628 627.625,334.458C628.125,334.288 628.545,334.128 628.875,333.958C629.375,333.788 629.795,333.628 630.125,333.458C629.955,333.128 629.795,332.628 629.625,331.958C629.455,331.458 629.295,330.878 629.125,330.208C628.955,329.378 628.875,328.628 628.875,327.958C628.705,327.288 628.625,326.628 628.625,325.958C628.625,324.288 628.875,322.628 629.375,320.958C629.875,319.288 630.455,317.788 631.125,316.458C631.955,314.958 632.795,313.538 633.625,312.208C634.625,310.878 635.625,309.788 636.625,308.958C637.625,307.958 638.545,307.208 639.375,306.708C640.375,306.208 641.205,305.958 641.875,305.958C643.045,305.958 644.045,306.378 644.875,307.208C645.545,308.038 646.125,309.128 646.625,310.458C647.125,311.788 647.455,313.128 647.625,314.458C647.955,315.788 648.125,316.958 648.125,317.958C648.125,319.628 647.955,321.288 647.625,322.958C647.295,324.458 646.955,325.878 646.625,327.208C646.125,328.378 645.625,329.458 645.125,330.458C644.625,331.458 644.125,332.208 643.625,332.708C644.625,332.878 645.875,333.038 647.375,333.208C649.045,333.378 651.125,333.458 653.625,333.458C656.955,333.458 659.705,332.878 661.875,331.708C664.045,330.538 665.625,329.038 666.625,327.208C666.625,326.708 666.455,326.038 666.125,325.208C665.795,324.538 665.455,323.788 665.125,322.958L663.625,320.458C663.125,319.628 662.705,318.878 662.375,318.208L661.875,317.708C661.705,317.538 661.625,317.378 661.625,317.208L661.625,316.708C661.625,316.378 661.705,315.878 661.875,315.208C661.875,314.538 661.955,313.788 662.125,312.958C662.295,312.288 662.545,311.628 662.875,310.958C663.045,310.288 663.205,309.708 663.375,309.208C663.545,308.878 663.705,308.708 663.875,308.708C664.045,308.708 664.295,308.878 664.625,309.208L666.625,312.208C667.125,313.038 667.625,314.038 668.125,315.208C668.625,316.208 668.955,317.378 669.125,318.708C669.455,320.038 669.625,321.628 669.625,323.458C669.625,325.788 669.375,328.128 668.875,330.458C668.375,332.788 667.455,334.878 666.125,336.708C664.955,338.708 663.375,340.288 661.375,341.458C659.375,342.628 656.795,343.208 653.625,343.208C651.455,343.208 649.455,343.128 647.625,342.958C645.795,342.788 644.205,342.538 642.875,342.208C641.375,342.038 640.045,341.708 638.875,341.208C637.705,340.878 636.625,340.378 635.625,339.708C634.795,340.378 633.875,341.038 632.875,341.708C631.875,342.208 630.795,342.708 629.625,343.208C628.625,343.708 627.545,344.128 626.375,344.458C625.375,344.628 624.375,344.708 623.375,344.708C622.205,344.708 621.125,344.538 620.125,344.208C618.955,343.878 617.955,343.378 617.125,342.708C616.295,341.878 615.625,340.788 615.125,339.458C614.625,338.288 614.375,336.708 614.375,334.708C614.375,334.538 614.295,334.378 614.125,334.208L613.375,334.208C613.205,334.378 613.045,334.458 612.875,334.458C612.545,334.628 612.295,334.878 612.125,335.208C611.955,335.538 611.545,336.038 610.875,336.708C610.375,337.538 609.705,338.378 608.875,339.208C608.045,340.038 607.045,340.958 605.875,341.958C604.875,342.958 603.705,343.878 602.375,344.708C601.045,345.378 599.545,345.958 597.875,346.458C596.375,347.128 594.705,347.458 592.875,347.458C592.525,347.458 592.215,347.388 591.955,347.248C590.285,347.258 588.675,346.918 587.125,346.208C585.295,345.538 583.705,344.038 582.375,341.708C581.705,340.538 581.125,339.038 580.625,337.208C580.125,335.378 579.755,333.748 579.505,332.338C579.255,330.918 578.985,327.978 578.695,323.528C578.545,324.298 578.355,325.018 578.125,325.708C577.955,326.708 577.705,327.628 577.375,328.458C577.045,329.288 576.705,329.878 576.375,330.208C576.045,330.878 575.125,331.958 573.625,333.458C571.955,335.128 569.875,336.958 567.375,338.958C565.045,341.128 562.375,343.288 559.375,345.458C556.375,347.788 553.205,349.878 549.875,351.708C546.545,353.538 543.125,355.038 539.625,356.208C536.295,357.378 533.045,357.958 529.875,357.958C526.875,357.958 524.295,357.538 522.125,356.708C519.955,355.878 518.125,354.708 516.625,353.208C515.125,351.878 513.875,350.288 512.875,348.458C512.045,346.628 511.375,344.708 510.875,342.708C510.545,341.708 510.295,340.628 510.125,339.458L513.875,338.708C514.205,339.208 514.545,339.788 514.875,340.458C516.045,342.628 517.875,344.458 520.375,345.958C522.875,347.628 526.205,348.458 530.375,348.458C533.205,348.458 536.205,347.958 539.375,346.958C542.375,345.958 545.455,344.708 548.625,343.208C551.625,341.538 554.545,339.788 557.375,337.958C560.205,335.958 562.875,334.038 565.375,332.208C567.705,330.378 569.795,328.628 571.625,326.958C573.295,325.288 574.625,323.878 575.625,322.708C576.125,322.208 576.455,321.628 576.625,320.958C576.955,320.288 577.205,319.378 577.375,318.208C577.545,316.878 577.625,315.128 577.625,312.958C577.725,311.768 577.745,310.448 577.695,308.978C577.645,307.518 577.625,306.178 577.625,304.958C577.625,301.458 577.545,297.788 577.375,293.958C577.045,290.288 576.705,286.458 576.375,282.458C576.205,278.458 575.875,274.538 575.375,270.708C574.875,267.208 574.455,263.958 574.125,260.958C573.795,257.788 573.295,254.788 572.625,251.958C572.625,251.458 572.705,250.708 572.875,249.708C573.045,248.878 573.205,247.958 573.375,246.958L573.875,244.958L573.875,244.708C574.045,244.038 574.125,243.628 574.125,243.458C574.455,242.788 574.705,242.458 574.875,242.458C575.045,242.288 575.295,242.628 575.625,243.458C576.455,246.288 577.375,249.958 578.375,254.458C579.205,258.788 580.045,263.958 580.875,269.958C581.545,275.128 581.955,280.628 582.125,286.458C582.455,292.288 582.625,297.878 582.625,303.208C582.795,308.708 582.955,313.628 583.125,317.958C583.455,322.458 583.875,325.958 584.375,328.458C584.705,330.628 585.205,332.288 585.875,333.458C586.545,334.628 587.205,335.538 587.875,336.208C588.705,336.708 589.545,337.038 590.375,337.208ZM644.375,324.458C644.375,323.788 644.205,322.958 643.875,321.958L642.875,318.958C642.375,317.958 641.875,317.038 641.375,316.208C640.875,315.538 640.375,315.208 639.875,315.208C639.375,315.208 638.705,315.458 637.875,315.958C637.045,316.628 636.205,317.458 635.375,318.458L632.875,321.458C632.045,322.628 631.455,323.628 631.125,324.458C631.295,324.958 631.625,325.458 632.125,325.958C632.455,326.628 632.875,327.208 633.375,327.708C634.045,328.208 634.625,328.708 635.125,329.208L637.125,330.208C637.455,329.878 637.955,329.538 638.625,329.208C639.295,328.878 639.955,328.458 640.625,327.958C641.455,327.458 642.205,326.878 642.875,326.208C643.545,325.538 644.045,324.958 644.375,324.458Z"/>
            </g>
        </g>
    </g>
</svg>
